<svg width="54" height="53" viewBox="0 0 54 53" fill="none" xmlns="http://www.w3.org/2000/svg">
<path d="M10.125 9.9375H48.375V47.4792H10.125V9.9375Z" fill="#BD00FF"/>
<path fill-rule="evenodd" clip-rule="evenodd" d="M9 9.93717C9 9.32736 9.50368 8.83301 10.125 8.83301H48.375C48.9963 8.83301 49.5 9.32736 49.5 9.93717V47.4788C49.5 48.0887 48.9963 48.583 48.375 48.583H10.125C9.50368 48.583 9 48.0887 9 47.4788V9.93717ZM11.25 11.0413V46.3747H47.25V11.0413H11.25Z" fill="#BD00FF"/>
<path d="M5.625 5.52051H43.875V43.0622H5.625V5.52051Z" fill="#DD7DFF"/>
<path fill-rule="evenodd" clip-rule="evenodd" d="M4.5 5.52067C4.5 4.91086 5.00368 4.4165 5.625 4.4165H43.875C44.4963 4.4165 45 4.91086 45 5.52067V43.0623C45 43.6721 44.4963 44.1665 43.875 44.1665H5.625C5.00368 44.1665 4.5 43.6721 4.5 43.0623V5.52067ZM6.75 6.62484V41.9582H42.75V6.62484H6.75Z" fill="#BD00FF"/>
<path fill-rule="evenodd" clip-rule="evenodd" d="M25 9C17.265 9 11 15.4235 11 23.3541C11 29.7058 15.0075 35.0707 20.5725 36.9726C21.2725 37.0982 21.535 36.6676 21.535 36.2908C21.535 35.9498 21.5175 34.8195 21.5175 33.6173C18 34.2812 17.09 32.7381 16.81 31.9307C16.6525 31.518 15.97 30.2441 15.375 29.9032C14.885 29.634 14.185 28.9702 15.3575 28.9522C16.46 28.9343 17.2475 29.9929 17.51 30.4235C18.77 32.5946 20.7825 31.9845 21.5875 31.6077C21.71 30.6747 22.0775 30.0467 22.48 29.6879C19.365 29.329 16.11 28.091 16.11 22.6005C16.11 21.0395 16.6525 19.7476 17.545 18.7429C17.405 18.384 16.915 16.9127 17.685 14.939C17.685 14.939 18.8575 14.5622 21.535 16.4103C22.655 16.0873 23.845 15.9259 25.035 15.9259C26.225 15.9259 27.415 16.0873 28.535 16.4103C31.2125 14.5443 32.385 14.939 32.385 14.939C33.155 16.9127 32.665 18.384 32.525 18.7429C33.4175 19.7476 33.96 21.0216 33.96 22.6005C33.96 28.1089 30.6875 29.329 27.5725 29.6879C28.08 30.1364 28.5175 30.9977 28.5175 32.3434C28.5175 34.2632 28.5 35.8063 28.5 36.2908C28.5 36.6676 28.7625 37.1161 29.4625 36.9726C32.2418 36.0106 34.6568 34.1792 36.3677 31.7362C38.0786 29.2933 38.9993 26.3617 39 23.3541C39 15.4235 32.735 9 25 9Z" fill="black"/>
</svg>
