<svg width="53" height="53" viewBox="0 0 53 53" fill="none" xmlns="http://www.w3.org/2000/svg">
<path d="M9.9375 9.9375H47.4792V47.4792H9.9375V9.9375Z" fill="#D10000"/>
<path fill-rule="evenodd" clip-rule="evenodd" d="M8.8335 9.93717C8.8335 9.32736 9.32785 8.83301 9.93766 8.83301H47.4793C48.0891 8.83301 48.5835 9.32736 48.5835 9.93717V47.4788C48.5835 48.0887 48.0891 48.583 47.4793 48.583H9.93766C9.32785 48.583 8.8335 48.0887 8.8335 47.4788V9.93717ZM11.0418 11.0413V46.3747H46.3752V11.0413H11.0418Z" fill="#D10000"/>
<path d="M5.521 5.52051H43.0627V43.0622H5.521V5.52051Z" fill="#FF5D5D"/>
<path fill-rule="evenodd" clip-rule="evenodd" d="M4.41675 5.52067C4.41675 4.91086 4.9111 4.4165 5.52091 4.4165H43.0626C43.6724 4.4165 44.1667 4.91086 44.1667 5.52067V43.0623C44.1667 43.6721 43.6724 44.1665 43.0626 44.1665H5.52091C4.9111 44.1665 4.41675 43.6721 4.41675 43.0623V5.52067ZM6.62508 6.62484V41.9582H41.9584V6.62484H6.62508Z" fill="#D10000"/>
<path fill-rule="evenodd" clip-rule="evenodd" d="M24.5 11.875C21.3426 11.875 20.9474 11.8882 19.7074 11.9448C18.4697 12.0013 17.6242 12.1982 16.8848 12.4857C16.1098 12.7771 15.4069 13.2343 14.8257 13.8264C14.2345 14.407 13.777 15.1095 13.4849 15.8848C13.1989 16.6242 13.0013 17.4705 12.9448 18.7082C12.889 19.9474 12.875 20.3419 12.875 23.5C12.875 26.6581 12.8882 27.0526 12.9448 28.2926C13.0013 29.5303 13.1982 30.3758 13.4857 31.1152C13.7771 31.8902 14.2343 32.5931 14.8264 33.1743C15.407 33.7655 16.1095 34.223 16.8848 34.5151C17.6242 34.8018 18.4697 34.9987 19.7074 35.0552C20.9474 35.1118 21.3426 35.125 24.5 35.125C27.6573 35.125 28.0526 35.1118 29.2926 35.0552C30.5303 34.9987 31.3758 34.8018 32.1152 34.5143C32.8902 34.2229 33.5931 33.7656 34.1743 33.1735C34.7655 32.593 35.223 31.8905 35.5151 31.1152C35.8018 30.3758 35.9987 29.5303 36.0552 28.2926C36.1118 27.0526 36.125 26.6573 36.125 23.5C36.125 20.3426 36.1118 19.9474 36.0552 18.7074C35.9987 17.4697 35.8018 16.6242 35.5143 15.8848C35.2224 15.1091 34.7649 14.4064 34.1735 13.8257C33.593 13.2345 32.8905 12.777 32.1152 12.4849C31.3758 12.1989 30.5295 12.0013 29.2918 11.9448C28.0526 11.889 27.6581 11.875 24.5 11.875ZM24.5 13.9698C27.6039 13.9698 27.972 13.9814 29.198 14.0372C30.3311 14.0892 30.9464 14.2775 31.3564 14.4379C31.8989 14.6479 32.2864 14.9006 32.6933 15.3067C33.1002 15.7136 33.3521 16.1011 33.5621 16.6436C33.7217 17.0535 33.9108 17.6689 33.9627 18.8019C34.0185 20.028 34.0302 20.3961 34.0302 23.5C34.0302 26.6039 34.0185 26.972 33.9627 28.198C33.9108 29.3311 33.7225 29.9464 33.5621 30.3564C33.376 30.8614 33.0792 31.3182 32.6933 31.6933C32.3183 32.0792 31.8614 32.3761 31.3564 32.5621C30.9464 32.7217 30.3311 32.9108 29.198 32.9627C27.972 33.0185 27.6046 33.0302 24.5 33.0302C21.3953 33.0302 21.028 33.0185 19.8019 32.9627C18.6689 32.9108 18.0535 32.7225 17.6436 32.5621C17.1386 32.376 16.6818 32.0792 16.3067 31.6933C15.9209 31.3182 15.624 30.8613 15.4379 30.3564C15.2783 29.9464 15.0892 29.3311 15.0372 28.198C14.9814 26.972 14.9698 26.6039 14.9698 23.5C14.9698 20.3961 14.9814 20.028 15.0372 18.8019C15.0892 17.6689 15.2775 17.0535 15.4379 16.6436C15.6479 16.1011 15.9006 15.7136 16.3067 15.3067C16.6818 14.9208 17.1386 14.6239 17.6436 14.4379C18.0535 14.2783 18.6689 14.0892 19.8019 14.0372C21.028 13.9814 21.3961 13.9698 24.5 13.9698Z" fill="black"/>
<path fill-rule="evenodd" clip-rule="evenodd" d="M24.4999 27.379C23.9905 27.379 23.4861 27.2786 23.0155 27.0837C22.5449 26.8888 22.1173 26.6031 21.7571 26.2429C21.3969 25.8827 21.1112 25.4551 20.9163 24.9845C20.7214 24.5139 20.621 24.0095 20.621 23.5001C20.621 22.9907 20.7214 22.4863 20.9163 22.0157C21.1112 21.5451 21.3969 21.1175 21.7571 20.7573C22.1173 20.3971 22.5449 20.1114 23.0155 19.9165C23.4861 19.7215 23.9905 19.6212 24.4999 19.6212C25.5286 19.6212 26.5153 20.0299 27.2427 20.7573C27.9701 21.4847 28.3788 22.4714 28.3788 23.5001C28.3788 24.5288 27.9701 25.5154 27.2427 26.2429C26.5153 26.9703 25.5286 27.379 24.4999 27.379ZM24.4999 17.5248C22.9152 17.5248 21.3953 18.1544 20.2748 19.275C19.1542 20.3955 18.5247 21.9154 18.5247 23.5001C18.5247 25.0848 19.1542 26.6047 20.2748 27.7252C21.3953 28.8458 22.9152 29.4753 24.4999 29.4753C26.0846 29.4753 27.6045 28.8458 28.725 27.7252C29.8456 26.6047 30.4752 25.0848 30.4752 23.5001C30.4752 21.9154 29.8456 20.3955 28.725 19.275C27.6045 18.1544 26.0846 17.5248 24.4999 17.5248ZM32.2135 17.4163C32.2135 17.7909 32.0647 18.1502 31.7998 18.4151C31.5349 18.68 31.1756 18.8288 30.801 18.8288C30.4264 18.8288 30.0672 18.68 29.8023 18.4151C29.5374 18.1502 29.3886 17.7909 29.3886 17.4163C29.3886 17.0417 29.5374 16.6825 29.8023 16.4176C30.0672 16.1527 30.4264 16.0039 30.801 16.0039C31.1756 16.0039 31.5349 16.1527 31.7998 16.4176C32.0647 16.6825 32.2135 17.0417 32.2135 17.4163Z" fill="black"/>
</svg>
