<svg width="53" height="53" viewBox="0 0 53 53" fill="none" xmlns="http://www.w3.org/2000/svg">
<path d="M9.9375 9.9375H47.4792V47.4792H9.9375V9.9375Z" fill="#716C00"/>
<path fill-rule="evenodd" clip-rule="evenodd" d="M8.8335 9.93717C8.8335 9.32736 9.32785 8.83301 9.93766 8.83301H47.4793C48.0891 8.83301 48.5835 9.32736 48.5835 9.93717V47.4788C48.5835 48.0887 48.0891 48.583 47.4793 48.583H9.93766C9.32785 48.583 8.8335 48.0887 8.8335 47.4788V9.93717ZM11.0418 11.0413V46.3747H46.3752V11.0413H11.0418Z" fill="#716C00"/>
<path d="M5.521 5.52051H43.0627V43.0622H5.521V5.52051Z" fill="#FFF500"/>
<path fill-rule="evenodd" clip-rule="evenodd" d="M4.41675 5.52067C4.41675 4.91086 4.9111 4.4165 5.52091 4.4165H43.0626C43.6724 4.4165 44.1667 4.91086 44.1667 5.52067V43.0623C44.1667 43.6721 43.6724 44.1665 43.0626 44.1665H5.52091C4.9111 44.1665 4.41675 43.6721 4.41675 43.0623V5.52067ZM6.62508 6.62484V41.9582H41.9584V6.62484H6.62508Z" fill="#716C00"/>
<path fill-rule="evenodd" clip-rule="evenodd" d="M18.7709 18.7708H14.3542V16.5625H18.7709V18.7708Z" fill="#FFF500"/>
<path fill-rule="evenodd" clip-rule="evenodd" d="M34.2293 32.0208H32.021V29.8125H34.2293V32.0208Z" fill="#FFF500"/>
<path fill-rule="evenodd" clip-rule="evenodd" d="M29.8126 32.0208H27.6042V29.8125H29.8126V32.0208Z" fill="#FFF500"/>
<path fill-rule="evenodd" clip-rule="evenodd" d="M34.2292 25.3958H14.3542V23.1875H34.2292V25.3958Z" fill="#FFF500"/>
<path d="M35.25 14.4044V33.5956C35.25 34.0344 35.0757 34.4552 34.7654 34.7654C34.4552 35.0757 34.0344 35.25 33.5956 35.25H14.4044C13.9656 35.25 13.5448 35.0757 13.2346 34.7654C12.9243 34.4552 12.75 34.0344 12.75 33.5956V14.4044C12.75 13.9656 12.9243 13.5448 13.2346 13.2346C13.5448 12.9243 13.9656 12.75 14.4044 12.75H33.5956C34.0344 12.75 34.4552 12.9243 34.7654 13.2346C35.0757 13.5448 35.25 13.9656 35.25 14.4044ZM19.3676 21.3529H16.0588V31.9412H19.3676V21.3529ZM19.6654 17.7132C19.6672 17.4629 19.6196 17.2148 19.5254 16.9829C19.4313 16.751 19.2923 16.5399 19.1166 16.3617C18.9408 16.1835 18.7317 16.0416 18.5011 15.9442C18.2706 15.8469 18.0231 15.7958 17.7728 15.7941H17.7132C17.2043 15.7941 16.7161 15.9963 16.3562 16.3562C15.9963 16.7161 15.7941 17.2043 15.7941 17.7132C15.7941 18.2222 15.9963 18.7104 16.3562 19.0703C16.7161 19.4302 17.2043 19.6324 17.7132 19.6324C17.9635 19.6385 18.2126 19.5953 18.4462 19.5052C18.6798 19.415 18.8933 19.2797 19.0746 19.1071C19.2559 18.9344 19.4014 18.7276 19.5028 18.4987C19.6042 18.2698 19.6594 18.0231 19.6654 17.7728V17.7132ZM31.9412 25.5088C31.9412 22.3257 29.9162 21.0882 27.9044 21.0882C27.2457 21.0553 26.5899 21.1955 26.0023 21.4951C25.4148 21.7947 24.9161 22.2431 24.5559 22.7956H24.4632V21.3529H21.3529V31.9412H24.6618V26.3096C24.6139 25.7328 24.7956 25.1604 25.1673 24.7168C25.5391 24.2732 26.0708 23.9942 26.6471 23.9404H26.7728C27.825 23.9404 28.6059 24.6022 28.6059 26.2699V31.9412H31.9147L31.9412 25.5088Z" fill="black"/>
</svg>
