<svg width="53" height="53" viewBox="0 0 53 53" fill="none" xmlns="http://www.w3.org/2000/svg">
<path d="M9.9375 9.9375H47.4792V47.4792H9.9375V9.9375Z" fill="#9C00D2"/>
<path fill-rule="evenodd" clip-rule="evenodd" d="M8.8335 9.93717C8.8335 9.32736 9.32785 8.83301 9.93766 8.83301H47.4793C48.0891 8.83301 48.5835 9.32736 48.5835 9.93717V47.4788C48.5835 48.0887 48.0891 48.583 47.4793 48.583H9.93766C9.32785 48.583 8.8335 48.0887 8.8335 47.4788V9.93717ZM11.0418 11.0413V46.3747H46.3752V11.0413H11.0418Z" fill="#9C00D2"/>
<path d="M5.521 5.52051H43.0627V43.0622H5.521V5.52051Z" fill="#DD7DFF"/>
<path fill-rule="evenodd" clip-rule="evenodd" d="M4.41675 5.52067C4.41675 4.91086 4.9111 4.4165 5.52091 4.4165H43.0626C43.6724 4.4165 44.1667 4.91086 44.1667 5.52067V43.0623C44.1667 43.6721 43.6724 44.1665 43.0626 44.1665H5.52091C4.9111 44.1665 4.41675 43.6721 4.41675 43.0623V5.52067ZM6.62508 6.62484V41.9582H41.9584V6.62484H6.62508Z" fill="#9C00D2"/>
</svg>
