<svg width="53" height="53" viewBox="0 0 53 53" fill="none" xmlns="http://www.w3.org/2000/svg">
<path d="M9.9375 9.9375H47.4792V47.4792H9.9375V9.9375Z" fill="#00602C"/>
<path fill-rule="evenodd" clip-rule="evenodd" d="M8.83325 9.93717C8.83325 9.32736 9.3276 8.83301 9.93742 8.83301H47.4791C48.0889 8.83301 48.5833 9.32736 48.5833 9.93717V47.4788C48.5833 48.0887 48.0889 48.583 47.4791 48.583H9.93742C9.3276 48.583 8.83325 48.0887 8.83325 47.4788V9.93717ZM11.0416 11.0413V46.3747H46.3749V11.0413H11.0416Z" fill="#00602C"/>
<path d="M5.52075 5.52051H43.0624V43.0622H5.52075V5.52051Z" fill="#00FF75"/>
<path d="M34.1092 19.5702C34.1239 19.7833 34.1239 19.9963 34.1239 20.2113C34.1239 26.7628 29.1364 34.3186 20.0166 34.3186V34.3147C17.3226 34.3186 14.6846 33.5469 12.4166 32.0919C12.8084 32.139 13.2021 32.1626 13.5967 32.1636C15.8293 32.1655 17.9981 31.4164 19.7545 30.037C17.6329 29.9968 15.7724 28.6134 15.1224 26.5939C15.8656 26.7373 16.6314 26.7078 17.3609 26.5085C15.0478 26.0412 13.3837 24.0089 13.3837 21.6487C13.3837 21.6271 13.3837 21.6064 13.3837 21.5858C14.0729 21.9697 14.8446 22.1827 15.6339 22.2063C13.4554 20.7503 12.7838 17.8521 14.0994 15.5861C16.6167 18.6837 20.3308 20.5667 24.3178 20.766C23.9183 19.044 24.4641 17.2395 25.7522 16.0289C27.7492 14.1517 30.8899 14.2479 32.7671 16.2439C33.8775 16.025 34.9417 15.6175 35.9157 15.0403C35.5455 16.188 34.7709 17.1629 33.7361 17.7824C34.7189 17.6665 35.6791 17.4034 36.5833 17.0019C35.9176 17.9994 35.0792 18.8682 34.1092 19.5702Z" fill="black"/>
<path fill-rule="evenodd" clip-rule="evenodd" d="M4.41663 5.52067C4.41663 4.91086 4.91098 4.4165 5.52079 4.4165H43.0625C43.6723 4.4165 44.1666 4.91086 44.1666 5.52067V43.0623C44.1666 43.6721 43.6723 44.1665 43.0625 44.1665H5.52079C4.91098 44.1665 4.41663 43.6721 4.41663 43.0623V5.52067ZM6.62496 6.62484V41.9582H41.9583V6.62484H6.62496Z" fill="#00602C"/>
</svg>
