<svg width="54" height="53" viewBox="0 0 54 53" fill="none" xmlns="http://www.w3.org/2000/svg">
<path d="M10.125 9.9375H48.375V47.4792H10.125V9.9375Z" fill="#8D5500"/>
<path fill-rule="evenodd" clip-rule="evenodd" d="M9 9.93717C9 9.32736 9.50368 8.83301 10.125 8.83301H48.375C48.9963 8.83301 49.5 9.32736 49.5 9.93717V47.4788C49.5 48.0887 48.9963 48.583 48.375 48.583H10.125C9.50368 48.583 9 48.0887 9 47.4788V9.93717ZM11.25 11.0413V46.3747H47.25V11.0413H11.25Z" fill="#8D5500"/>
<path d="M5.625 5.52051H43.875V43.0622H5.625V5.52051Z" fill="#FFB443"/>
<path fill-rule="evenodd" clip-rule="evenodd" d="M4.5 5.52067C4.5 4.91086 5.00368 4.4165 5.625 4.4165H43.875C44.4963 4.4165 45 4.91086 45 5.52067V43.0623C45 43.6721 44.4963 44.1665 43.875 44.1665H5.625C5.00368 44.1665 4.5 43.6721 4.5 43.0623V5.52067ZM6.75 6.62484V41.9582H42.75V6.62484H6.75Z" fill="#8D5500"/>
<path d="M38.4346 17.8242C38.2818 17.2792 37.984 16.7857 37.573 16.3963C37.1504 15.995 36.6324 15.7079 36.068 15.5621C33.9555 15.0056 25.4921 15.0056 25.4921 15.0056C21.9639 14.9655 18.4364 15.1419 14.9298 15.534C14.3653 15.6905 13.8483 15.984 13.4248 16.3885C13.0086 16.7887 12.7071 17.2823 12.5496 17.8231C12.1713 19.86 11.9875 21.9283 12.0007 24C11.9872 26.0698 12.1705 28.1374 12.5496 30.1769C12.7037 30.7155 13.0041 31.2068 13.4214 31.6037C13.8387 32.0005 14.3584 32.2872 14.9298 32.439C17.0704 32.9944 25.4921 32.9944 25.4921 32.9944C29.0249 33.0346 32.5568 32.8581 36.068 32.466C36.6324 32.3202 37.1504 32.0331 37.573 31.6318C37.9839 31.2424 38.2813 30.7489 38.4335 30.2039C38.8217 28.1677 39.0104 26.0986 38.9971 24.0259C39.0263 21.9443 38.8378 19.8654 38.4346 17.8231V17.8242ZM22.8015 27.8496V20.1515L29.843 24.0011L22.8015 27.8496Z" fill="#111111"/>
</svg>
