<svg width="78" height="485" viewBox="0 0 78 485" fill="none" xmlns="http://www.w3.org/2000/svg">
<g clip-path="url(#clip0_4_11)">
<path d="M48.6461 326.789C54.0362 360.208 66.7817 412.986 66.7817 435.984C66.7817 455.411 59.5948 484.08 38.7754 484.08C16.5186 484.08 10.7691 455.411 10.7691 435.984C10.7691 412.447 26.0299 356.435 28.8934 326.789V170.025C6.07514 164.018 0 142.917 0 103.659L8.613 0H17.0351V104.659C17.0351 107.197 19.0789 109.252 21.6167 109.252C24.1546 109.252 26.1984 107.197 26.1984 104.659V0H34.2611V104.659C34.2611 107.197 36.3161 109.252 38.854 109.252C41.3806 109.252 43.4356 107.197 43.4356 104.659V0H51.4984V104.659C51.4984 107.197 53.5533 109.252 56.0912 109.252C58.6178 109.252 60.6728 107.197 60.6728 104.659V0H69.0949L77.5507 103.659C77.5507 142.917 71.4644 164.018 48.6461 170.025V326.789Z" fill="#B3B3B3"/>
</g>
<defs>
<clipPath id="clip0_4_11">
<rect width="77.5507" height="484.08" fill="white"/>
</clipPath>
</defs>
</svg>
