<svg width="86" height="493" viewBox="0 0 86 493" fill="none" xmlns="http://www.w3.org/2000/svg">
<g clip-path="url(#clip0_125_7146)" filter="url(#filter0_dddiii_125_7146)">
<path d="M52.6461 326.789C54.4777 338.145 57.1585 351.736 59.9 365.634C65.2264 392.638 70.7817 420.801 70.7817 435.984C70.7817 455.411 63.5948 484.08 42.7754 484.08C20.5186 484.08 14.7691 455.411 14.7691 435.984C14.7691 423 19.4133 400.132 24.0585 377.26C27.8338 358.672 31.6096 340.08 32.8934 326.789V170.025C10.0751 164.018 4 142.917 4 103.659L12.613 0H21.0351V104.659C21.0351 107.197 23.0789 109.252 25.6167 109.252C28.1546 109.252 30.1984 107.197 30.1984 104.659V0H38.2611V104.659C38.2611 107.197 40.3161 109.252 42.854 109.252C45.3806 109.252 47.4356 107.197 47.4356 104.659V0H55.4984V104.659C55.4984 107.197 57.5533 109.252 60.0912 109.252C62.6178 109.252 64.6728 107.197 64.6728 104.659V0H73.0949L81.5507 103.659C81.5507 142.917 75.4644 164.018 52.6461 170.025V326.789Z" fill="#B3B3B3"/>
<path d="M52.6461 326.789C54.4777 338.145 57.1585 351.736 59.9 365.634C65.2264 392.638 70.7817 420.801 70.7817 435.984C70.7817 455.411 63.5948 484.08 42.7754 484.08C20.5186 484.08 14.7691 455.411 14.7691 435.984C14.7691 423 19.4133 400.132 24.0585 377.26C27.8338 358.672 31.6096 340.08 32.8934 326.789V170.025C10.0751 164.018 4 142.917 4 103.659L12.613 0H21.0351V104.659C21.0351 107.197 23.0789 109.252 25.6167 109.252C28.1546 109.252 30.1984 107.197 30.1984 104.659V0H38.2611V104.659C38.2611 107.197 40.3161 109.252 42.854 109.252C45.3806 109.252 47.4356 107.197 47.4356 104.659V0H55.4984V104.659C55.4984 107.197 57.5533 109.252 60.0912 109.252C62.6178 109.252 64.6728 107.197 64.6728 104.659V0H73.0949L81.5507 103.659C81.5507 142.917 75.4644 164.018 52.6461 170.025V326.789Z" stroke="black"/>
</g>
<defs>
<filter id="filter0_dddiii_125_7146" x="0" y="0" width="85.5507" height="492.08" filterUnits="userSpaceOnUse" color-interpolation-filters="sRGB">
<feFlood flood-opacity="0" result="BackgroundImageFix"/>
<feColorMatrix in="SourceAlpha" type="matrix" values="0 0 0 0 0 0 0 0 0 0 0 0 0 0 0 0 0 0 127 0" result="hardAlpha"/>
<feOffset dy="4"/>
<feGaussianBlur stdDeviation="2"/>
<feComposite in2="hardAlpha" operator="out"/>
<feColorMatrix type="matrix" values="0 0 0 0 0 0 0 0 0 0 0 0 0 0 0 0 0 0 0.25 0"/>
<feBlend mode="normal" in2="BackgroundImageFix" result="effect1_dropShadow_125_7146"/>
<feColorMatrix in="SourceAlpha" type="matrix" values="0 0 0 0 0 0 0 0 0 0 0 0 0 0 0 0 0 0 127 0" result="hardAlpha"/>
<feOffset dy="4"/>
<feGaussianBlur stdDeviation="2"/>
<feComposite in2="hardAlpha" operator="out"/>
<feColorMatrix type="matrix" values="0 0 0 0 0 0 0 0 0 0 0 0 0 0 0 0 0 0 0.25 0"/>
<feBlend mode="normal" in2="effect1_dropShadow_125_7146" result="effect2_dropShadow_125_7146"/>
<feColorMatrix in="SourceAlpha" type="matrix" values="0 0 0 0 0 0 0 0 0 0 0 0 0 0 0 0 0 0 127 0" result="hardAlpha"/>
<feOffset dy="4"/>
<feGaussianBlur stdDeviation="2"/>
<feComposite in2="hardAlpha" operator="out"/>
<feColorMatrix type="matrix" values="0 0 0 0 0 0 0 0 0 0 0 0 0 0 0 0 0 0 0.25 0"/>
<feBlend mode="normal" in2="effect2_dropShadow_125_7146" result="effect3_dropShadow_125_7146"/>
<feBlend mode="normal" in="SourceGraphic" in2="effect3_dropShadow_125_7146" result="shape"/>
<feColorMatrix in="SourceAlpha" type="matrix" values="0 0 0 0 0 0 0 0 0 0 0 0 0 0 0 0 0 0 127 0" result="hardAlpha"/>
<feOffset dy="4"/>
<feGaussianBlur stdDeviation="2"/>
<feComposite in2="hardAlpha" operator="arithmetic" k2="-1" k3="1"/>
<feColorMatrix type="matrix" values="0 0 0 0 0 0 0 0 0 0 0 0 0 0 0 0 0 0 0.25 0"/>
<feBlend mode="normal" in2="shape" result="effect4_innerShadow_125_7146"/>
<feColorMatrix in="SourceAlpha" type="matrix" values="0 0 0 0 0 0 0 0 0 0 0 0 0 0 0 0 0 0 127 0" result="hardAlpha"/>
<feOffset dy="4"/>
<feGaussianBlur stdDeviation="2"/>
<feComposite in2="hardAlpha" operator="arithmetic" k2="-1" k3="1"/>
<feColorMatrix type="matrix" values="0 0 0 0 0 0 0 0 0 0 0 0 0 0 0 0 0 0 0.25 0"/>
<feBlend mode="normal" in2="effect4_innerShadow_125_7146" result="effect5_innerShadow_125_7146"/>
<feColorMatrix in="SourceAlpha" type="matrix" values="0 0 0 0 0 0 0 0 0 0 0 0 0 0 0 0 0 0 127 0" result="hardAlpha"/>
<feOffset dy="4"/>
<feGaussianBlur stdDeviation="2"/>
<feComposite in2="hardAlpha" operator="arithmetic" k2="-1" k3="1"/>
<feColorMatrix type="matrix" values="0 0 0 0 0 0 0 0 0 0 0 0 0 0 0 0 0 0 0.25 0"/>
<feBlend mode="normal" in2="effect5_innerShadow_125_7146" result="effect6_innerShadow_125_7146"/>
</filter>
<clipPath id="clip0_125_7146">
<rect width="77.5507" height="484.08" fill="white" transform="translate(4)"/>
</clipPath>
</defs>
</svg>
