<svg width="290" height="377" viewBox="0 0 290 377" fill="none" xmlns="http://www.w3.org/2000/svg">
<g opacity="0.67" clip-path="url(#clip0_6_71)">
<path d="M130.882 0.0417154C124.292 0.166826 117.618 0.667268 110.903 1.62645C101.018 3.79503 91.467 7.25643 82.9167 11.7604C72.1559 16.6397 61.0197 21.6859 50.9679 22.3948C50.4674 22.4365 49.9669 22.5199 49.4664 22.645C35.3689 26.2315 23.2317 34.9476 15.4322 46.8748L14.1809 48.7097C13.9307 49.0851 13.6804 49.5021 13.4719 49.9191C6.58996 64.3069 4.75478 80.8215 8.46685 96.919C10.8442 104.718 13.6804 112.224 16.4332 119.481L17.2674 121.691C23.6905 136.788 28.3619 152.635 31.1563 168.816C31.2815 169.65 31.5734 170.442 31.9071 171.151C34.6599 176.573 36.787 182.328 38.3719 188.458C39.081 190.877 39.79 193.338 40.5408 195.84C40.7493 196.549 41.1664 197.133 41.5418 197.716C41.5418 198.592 41.6669 199.468 41.9589 200.344L53.5539 233.498C54.3463 235.75 56.0564 237.543 58.2669 238.461C60.4775 239.378 62.9383 239.295 65.1072 238.252C86.9625 227.618 138.222 202.763 208.877 246.927C210.211 247.761 211.755 248.178 213.298 248.178C214.424 248.178 215.55 247.969 216.593 247.511C219.095 246.426 220.931 244.174 221.473 241.464C223.183 232.747 223.808 218.818 223.225 207.433L223.767 204.931C224.434 201.637 225.101 198.3 225.81 195.006C232.4 180.326 244.121 166.105 255.424 152.343C273.15 130.782 291.502 108.513 289.917 83.6156C289.833 82.4896 289.541 81.3636 289.041 80.3627C286.413 75.2332 283.493 70.2288 279.865 64.5988L279.156 63.4728C278.322 62.1383 277.446 60.8455 276.612 59.5944C275.944 58.6769 275.319 57.7594 274.651 56.9253L273.942 55.9662C272.608 54.2146 271.315 52.4214 269.938 50.7532C269.187 49.8774 268.478 49.0434 267.519 47.9174C266.018 46.1658 264.516 44.4977 262.973 42.913L260.971 40.8695C259.177 39.1179 257.426 37.4498 255.674 35.9068L254.381 34.7808C232.192 15.8891 209.377 10.8846 195.53 7.88198L187.772 6.13043C169.712 2.66904 150.652 -0.333616 130.882 0.0417154ZM139.14 16.7231C146.689 16.9316 154.364 17.6823 162.288 18.7666C135.094 59.219 139.766 113.934 146.064 161.685C137.764 161.059 129.297 160.851 120.746 161.268C115.908 132.867 110.903 97.211 106.607 69.1028C105.314 56.4666 106.44 43.6636 109.902 31.4445C113.322 24.063 113.656 19.9343 116.701 17.6823C124.167 16.8065 131.591 16.5146 139.14 16.7231ZM112.196 18.4747C108.484 21.6024 105.815 26.5235 103.98 32.779C100.893 45.4986 99.8504 58.5935 100.893 71.6467C102.937 102.132 108.484 132.2 116.993 161.476C108.943 162.06 100.935 163.103 93.2605 164.812C87.4213 144.67 88.464 121.816 86.5454 100.506C84.6268 76.1507 76.6187 53.0469 66.4001 39.3682C65.6911 37.7 65.7745 36.8659 65.983 36.157C70.4041 34.8642 74.7835 33.2794 79.0795 31.4445C79.58 31.7364 80.1223 31.9866 80.581 32.362L80.7479 32.1534C80.2891 31.8198 79.8303 31.6113 79.3298 31.3194C83.0002 29.7763 86.6705 28.1916 90.174 26.5652C97.3062 22.9787 104.855 20.2679 112.196 18.4747ZM80.581 32.4871L80.4976 32.6122H80.7479C80.7062 32.5705 80.6228 32.5288 80.581 32.4871ZM162.747 18.8083C169.712 19.7675 176.886 21.0186 184.394 22.4365L192.235 24.1881C198.033 25.4392 205.165 27.0656 212.964 29.8597C199.451 54.0061 190.316 80.4044 186.187 107.845C183.184 127.655 181.85 147.672 181.85 167.69C171.673 164.896 160.078 162.852 147.815 161.81C147.315 151.175 146.981 140.374 147.44 134.285C148.858 114.143 150.568 51.8792 162.747 18.8083ZM215.091 30.6521C224.059 34.1135 233.86 39.243 243.537 47.5003L244.621 48.4595C246.164 49.794 247.666 51.2537 249.209 52.755L250.961 54.5482C252.295 55.9245 253.588 57.3841 255.173 59.219C255.799 59.928 256.425 60.637 257.05 61.3876C257.968 62.5136 258.844 63.723 259.761 64.9324C244.329 70.9377 218.762 127.738 215.258 179.158C214.633 180.243 214.007 181.285 213.465 182.37C206.499 176.531 196.614 172.277 187.73 169.441C186.312 168.983 184.811 168.607 183.351 168.19C184.686 148.048 186.563 126.904 188.398 107.804C194.32 76.4009 209.502 60.3033 215.091 30.6521ZM63.3971 37.0745C63.8142 38.2422 64.4398 39.3264 65.274 40.2856C75.3675 54.0061 77.3278 76.3175 79.5383 100.631C81.4152 122.066 83.5424 145.087 91.467 165.313C84.7102 166.939 78.2454 169.066 72.1559 171.693C67.1509 153.636 64.7735 133.326 61.0197 114.935C55.9313 90.0797 55.2639 67.81 46.7971 61.0123C43.5438 56.55 34.9101 56.9253 38.9976 48.7514C39.9569 46.9999 41.1664 45.4152 42.3342 43.747C45.6292 41.7453 49.1327 40.0354 52.9282 38.9928C56.4318 38.6592 59.8936 37.9502 63.3971 37.0745ZM39.5398 45.4152C38.7473 46.4995 37.9966 47.5837 37.4126 48.7932C35.9111 51.5873 35.2438 54.7568 35.5357 57.8845C35.786 59.5527 36.4533 61.0957 37.4543 62.4302C45.7961 69.0611 50.092 90.2048 55.1805 114.977C58.976 133.66 63.3971 154.303 70.1539 172.569C64.3147 175.28 58.8926 178.491 53.9709 182.328C52.3026 176.281 50.1755 170.359 47.4227 164.687C44.378 147.672 39.4146 130.991 32.783 115.394L32.0739 113.517C29.4046 106.511 26.6935 99.2961 24.6081 92.5819C21.9387 80.9049 23.2317 68.5189 28.2784 57.6343L29.2794 56.1747C32.0322 52.0043 35.5357 48.3344 39.5398 45.4152ZM260.512 65.8916C260.512 65.8916 260.512 65.9333 260.554 65.9333L261.346 66.9759C261.888 67.6849 262.431 68.3938 262.973 69.1445C263.724 70.1871 264.433 71.3131 265.142 72.4391L265.892 73.6068C268.812 78.1524 271.231 82.1977 273.358 86.2846C273.525 104.092 258.51 122.4 242.577 141.709C236.404 149.215 230.106 156.889 224.434 164.812C237.28 131.908 249.668 99.171 260.512 65.8916ZM126.502 177.907C146.773 177.449 167.168 180.368 182.684 185.331C201.202 191.211 205.623 197.383 205.79 199.176C206.082 201.22 206.333 203.722 206.458 206.349L206.416 206.558C206.124 207.934 206.291 209.227 206.666 210.478C206.833 215.566 206.791 221.029 206.499 226.117C177.428 210.269 151.235 204.931 128.963 204.931C101.727 204.931 80.2474 212.855 66.3167 219.152L59.4348 199.51C74.575 184.705 100.434 178.491 126.502 177.907ZM84.0429 254.225L80.2474 256.769C81.8323 259.438 83.9177 261.815 86.3368 263.775C88.2554 264.984 90.5077 265.568 92.76 265.443C93.9278 265.443 95.0539 265.276 96.1801 264.943L108.776 260.397C109.652 260.063 110.528 259.896 111.445 259.896C112.822 259.813 114.198 260.188 115.366 260.939C116.951 262.232 118.327 263.775 119.453 265.485L123.04 263.483V263.4C121.497 260.981 119.537 258.854 117.285 257.061C115.491 255.81 113.322 255.142 111.153 255.184C110.403 255.184 109.694 255.309 108.985 255.601L95.3459 260.147C94.47 260.397 93.5524 260.522 92.6765 260.522C91.0499 260.647 89.4233 260.188 88.1303 259.271C86.5454 257.811 85.1273 256.101 84.0429 254.225ZM224.1 263.316C222.807 263.441 221.598 264.067 220.764 265.109C219.763 265.943 219.137 267.111 218.97 268.446C218.887 268.738 218.887 269.03 218.97 269.321C221.89 272.408 225.644 274.618 229.814 275.66C233.944 276.953 238.115 278.163 242.16 279.33C246.248 280.707 249.751 283.459 252.003 287.171C252.045 287.337 252.045 287.504 252.003 287.671C252.003 288.463 250.127 289.715 246.54 291.549C244.704 292.592 241.993 294.927 237.447 298.389C234.611 300.724 231.566 302.768 228.355 304.561C225.602 305.77 223.225 307.647 221.389 310.024C221.348 310.066 221.306 310.108 221.264 310.149C219.804 311.817 219.971 314.361 221.64 315.821C222.515 316.655 223.683 317.114 224.893 317.072C225.769 317.072 226.603 316.822 227.354 316.446C233.235 312.735 238.865 308.69 244.246 304.269C249.709 299.765 255.382 295.511 261.304 291.549C264.599 289.548 266.184 287.463 266.184 285.294C266.059 283.876 265.309 282.541 264.099 281.791C257.092 275.494 248.792 270.823 239.825 267.987L233.193 265.109C230.982 264.109 228.563 263.525 226.144 263.358C225.435 263.191 224.768 263.191 224.1 263.316ZM42.4177 263.775C36.5785 268.154 30.2387 271.74 23.482 274.409C16.7669 277.162 10.4272 280.707 4.58795 285.002C1.71005 287.546 0.0417086 291.174 0 294.969C0.333669 296.429 1.37638 297.596 2.75277 298.18C3.96232 298.597 5.25529 299.098 6.50654 299.598C18.9774 304.895 30.6558 310.566 41.5835 316.655C43.0433 317.698 44.378 318.865 45.6709 320.116C46.5051 320.492 47.381 320.659 48.2986 320.659C50.5508 320.659 52.7197 319.908 54.4715 318.49C56.2232 317.239 57.1408 315.112 56.8906 312.985C56.974 311.4 56.0147 309.941 54.5549 309.357L35.7026 301.058C29.4463 298.389 23.3568 295.344 17.4759 291.967C21.6051 286.837 27.1523 283.042 33.4086 281.04C39.6232 279.038 45.379 275.744 50.3006 271.448C51.0096 270.781 51.385 269.822 51.385 268.863C51.3433 267.487 50.7177 266.194 49.5915 265.36C48.2986 264.359 46.6719 263.817 45.0453 263.858H42.4177V263.775ZM174.217 276.661C170.547 276.536 166.96 277.871 164.249 280.331C161.204 283.376 159.911 287.754 160.828 291.967C161.246 295.928 162.83 299.682 165.375 302.768C167.544 305.645 170.88 307.313 174.467 307.313C176.803 307.272 179.139 306.646 181.182 305.52C185.645 302.309 188.022 296.888 187.313 291.424C187.105 285.294 185.645 281.124 182.767 279.122C180.265 277.412 177.262 276.578 174.217 276.661ZM103.521 276.953C99.8504 276.828 96.2635 278.121 93.5524 280.623C90.466 283.626 89.173 288.046 90.0906 292.258C90.5494 296.22 92.1343 299.974 94.6369 303.06C96.764 305.937 100.142 307.605 103.729 307.605C106.065 307.564 108.359 306.938 110.444 305.812C114.532 303.352 116.534 298.681 116.534 291.716C117.076 287.129 115.408 282.583 112.071 279.414C109.569 277.704 106.566 276.87 103.521 276.953ZM103.354 286.754C105.856 286.754 107.9 288.797 107.9 291.299C107.9 293.801 105.856 295.845 103.354 295.845C100.851 295.845 98.8077 293.801 98.8077 291.299C98.8077 288.797 100.851 286.754 103.354 286.754ZM172.799 287.296C175.301 287.296 177.345 289.339 177.345 291.841C177.345 294.344 175.301 296.387 172.799 296.387C170.296 296.387 168.253 294.344 168.253 291.841C168.253 289.339 170.255 287.296 172.799 287.296ZM128.629 319.241C128.546 319.324 128.463 319.449 128.421 319.616V319.991C129.046 321.743 129.839 323.411 130.798 324.996C131.674 326.539 132.759 327.915 134.01 329.166C135.136 330.334 136.471 331.335 137.93 332.044C139.39 332.669 140.933 333.003 142.477 333.044L142.643 333.253C143.895 333.253 145.146 333.044 146.314 332.586C147.44 332.127 148.524 331.543 149.484 330.834C150.401 330.084 151.319 329.249 152.111 328.374C152.862 327.54 153.529 326.622 154.113 325.621C154.656 324.745 155.156 323.87 155.573 322.952C155.907 322.285 156.157 321.576 156.366 320.867V320.45C156.282 320.325 156.199 320.2 156.157 320.033C154.989 321.868 153.488 323.453 151.778 324.787C150.485 326.038 148.9 326.956 147.231 327.581C145.521 328.165 143.728 328.457 141.893 328.457C140.349 328.499 138.806 328.249 137.346 327.832C136.095 327.415 134.886 326.789 133.843 325.997C132.759 325.121 131.799 324.162 130.965 323.077C130.047 321.868 129.297 320.575 128.629 319.241ZM116.576 336.756C98.3489 337.715 87.7549 361.111 62.3127 339.509C55.389 380.962 106.023 385.049 126.878 366.324C141.267 353.479 137.221 335.588 116.576 336.756ZM158.326 336.756C140.933 337.84 138.222 354.313 151.694 366.366C172.507 385.09 223.141 380.962 216.217 339.55C190.817 361.153 180.181 337.715 161.955 336.798C160.703 336.673 159.494 336.673 158.326 336.756Z" fill="black"/>
</g>
<defs>
<clipPath id="clip0_6_71">
<rect width="290" height="377" fill="white"/>
</clipPath>
</defs>
</svg>
