<svg width="144" height="181" viewBox="0 0 144 181" fill="none" xmlns="http://www.w3.org/2000/svg">
<path d="M71.9785 128.621C63.6061 128.608 55.3915 130.898 48.2339 135.242V137.502H95.723V135.25C88.5663 130.903 80.3516 128.61 71.9785 128.621Z" fill="#FED100"/>
<path d="M102.009 137.493H41.9456V175.035H102.009V137.493Z" fill="#97512C"/>
<path d="M106.16 175.035H37.7991V180.716H106.16V175.035Z" fill="#7C3E25"/>
<path d="M76.7244 91.7437C73.6637 92.8812 70.2962 92.8812 67.2355 91.7437V91.7254C67.2355 88.9466 65.9024 86.0499 63.2335 84.0175L63.1838 83.9913C53.8063 77.6879 46.3294 68.9422 41.5606 58.6988C32.9632 40.3264 28.5215 20.2845 28.5517 0H115.406C115.435 20.2858 110.991 40.3286 102.391 58.7014C97.6226 68.9448 90.1457 77.6906 80.7683 83.9939L80.7211 84.0201C78.0523 86.0525 76.7192 88.9492 76.7192 91.728L76.7244 91.7437Z" fill="#FED100"/>
<path d="M76.0169 91.9846C76.0164 93.2104 76.2838 94.4215 76.8005 95.5331C77.3171 96.6447 78.0705 97.6299 79.0079 98.4197C79.4866 98.8537 79.8222 99.4227 79.9706 100.052C80.119 100.68 80.0731 101.339 79.839 101.942C79.6048 102.544 79.1935 103.061 78.6593 103.424C78.1252 103.788 77.4933 103.981 76.8472 103.977H67.1094C66.4652 103.979 65.8355 103.786 65.3029 103.424C64.7704 103.061 64.36 102.546 64.1257 101.946C63.8913 101.346 63.844 100.689 63.99 100.061C64.136 99.4339 64.4684 98.8653 64.9435 98.4302C65.8809 97.6403 66.6343 96.6551 67.1509 95.5436C67.6676 94.432 67.935 93.2209 67.9345 91.9951L76.0169 91.9846Z" fill="#FED100"/>
<path d="M80.0717 131.347C74.7878 132.898 69.1696 132.898 63.8857 131.347L63.9093 131.271V125.978C66.8387 119.012 67.7297 111.357 66.4786 103.904H77.4788C76.2277 111.357 77.1187 119.012 80.0481 125.978V131.276L80.0717 131.347Z" fill="#FFDB31"/>
<path d="M41.2988 82.9202C39.0891 82.918 36.9528 82.1266 35.2749 80.6887C34.6237 80.1299 34.2212 79.3353 34.1558 78.4796C34.0905 77.624 34.3678 76.7775 34.9266 76.1263C35.4854 75.4751 36.28 75.0725 37.1357 75.0072C37.9913 74.9419 38.8378 75.2191 39.489 75.7779C39.9936 76.2143 40.6395 76.4526 41.3067 76.4484C41.7283 76.4464 42.1441 76.3495 42.5232 76.1647C42.9023 75.98 43.2349 75.7123 43.4963 75.3814C43.7577 75.0506 43.9413 74.6651 44.0333 74.2535C44.1253 73.842 44.1235 73.415 44.0279 73.0043C43.5852 71.4519 42.7479 70.0406 41.5974 68.9081C41.3489 68.7144 41.1199 68.4969 40.9138 68.2586L12.5989 41.6854C3.21737 32.8826 -3.66033 19.0958 2.12259 8.14544C3.36042 5.83759 5.17935 3.8929 7.39943 2.5038C9.61952 1.1147 12.1638 0.32931 14.7806 0.225342C14.8574 0.225342 14.936 0.225342 15.0163 0.225342H15.2782C15.3568 0.225342 15.4328 0.225342 15.5087 0.225342C18.3022 0.31867 21.0103 1.2114 23.3117 2.79762C25.6131 4.38383 27.4111 6.59694 28.4925 9.17435C29.5739 11.7518 29.8932 14.5853 29.4125 17.3387C28.9318 20.0921 27.6714 22.6499 25.7807 24.7085C25.4932 25.0213 25.1469 25.2744 24.7615 25.4534C24.3762 25.6324 23.9593 25.7337 23.5348 25.7516C23.1103 25.7694 22.6864 25.7035 22.2874 25.5576C21.8883 25.4116 21.522 25.1885 21.2091 24.901C20.8963 24.6135 20.6432 24.2671 20.4642 23.8818C20.2853 23.4964 20.184 23.0796 20.1661 22.6551C20.1482 22.2306 20.2141 21.8067 20.3601 21.4076C20.506 21.0086 20.7291 20.6422 21.0166 20.3294C22.0782 19.1733 22.7827 17.7349 23.0453 16.1875C23.3079 14.6401 23.1175 13.0498 22.4969 11.6082C21.8763 10.1666 20.852 8.93518 19.5475 8.06242C18.243 7.18967 16.714 6.71278 15.1447 6.68923C13.6399 6.72208 12.1709 7.15406 10.8879 7.94097C9.60495 8.72788 8.55402 9.84149 7.84267 11.1679C3.67309 19.0618 9.67602 30.075 17.0252 36.9684L45.4343 63.628C45.5155 63.7014 45.5836 63.7721 45.6412 63.8349C45.6989 63.8978 45.7879 63.9554 45.856 64.0209C47.9653 66.0044 49.4908 68.5281 50.2665 71.3176C50.2751 71.3425 50.2821 71.3679 50.2875 71.3936C50.6292 72.7602 50.6551 74.1867 50.3633 75.5649C50.0714 76.943 49.4694 78.2365 48.603 79.3473C47.7366 80.4581 46.6286 81.3569 45.363 81.9755C44.0974 82.5941 42.7075 82.9163 41.2988 82.9176V82.9202ZM40.995 68.3345H41.0081H40.995Z" fill="#FED100"/>
<path d="M93.3921 73.6539C93.3922 72.892 93.4855 72.1329 93.6697 71.3936C93.6751 71.3679 93.6821 71.3425 93.6907 71.3177C94.4664 68.5281 95.9919 66.0044 98.1012 64.0209C98.1693 63.9554 98.2426 63.8952 98.316 63.8349C98.3893 63.7747 98.4417 63.7014 98.5229 63.628L126.929 36.9684C134.276 30.075 140.287 19.0618 136.112 11.1679C135.401 9.84187 134.35 8.72851 133.068 7.94162C131.785 7.15473 130.317 6.72254 128.813 6.68923C127.244 6.71426 125.716 7.19222 124.413 8.06556C123.109 8.93889 122.086 10.1704 121.466 11.6117C120.847 13.053 120.657 14.6427 120.92 16.1894C121.183 17.7361 121.887 19.1738 122.948 20.3294C123.529 20.9612 123.835 21.7977 123.799 22.6551C123.763 23.5124 123.388 24.3203 122.756 24.901C122.124 25.4817 121.288 25.7877 120.43 25.7516C119.573 25.7155 118.765 25.3403 118.184 24.7085C116.294 22.6499 115.033 20.0921 114.553 17.3387C114.072 14.5853 114.391 11.7518 115.473 9.17435C116.554 6.59694 118.352 4.38383 120.653 2.79762C122.955 1.2114 125.663 0.31867 128.456 0.225342C128.532 0.225342 128.608 0.225342 128.687 0.225342H128.949C129.029 0.225342 129.108 0.225342 129.184 0.225342C131.801 0.32931 134.346 1.1147 136.566 2.5038C138.786 3.89291 140.605 5.83759 141.842 8.14544C147.628 19.0958 140.75 32.8827 131.366 41.6854L103.041 68.2586C102.835 68.4967 102.607 68.7143 102.36 68.9081C101.213 70.0418 100.379 71.453 99.9398 73.0043C99.8442 73.4151 99.8423 73.842 99.9344 74.2535C100.026 74.6651 100.21 75.0506 100.471 75.3814C100.733 75.7123 101.065 75.98 101.444 76.1647C101.824 76.3495 102.239 76.4464 102.661 76.4484C103.328 76.4526 103.974 76.2143 104.479 75.7779C105.13 75.2191 105.976 74.9419 106.832 75.0072C107.688 75.0725 108.482 75.4751 109.041 76.1263C109.6 76.7775 109.877 77.624 109.812 78.4797C109.747 79.3353 109.344 80.1299 108.693 80.6887C107.347 81.8424 105.699 82.586 103.944 82.8314C102.189 83.0768 100.4 82.8136 98.7896 82.0732C97.1793 81.3327 95.8152 80.146 94.859 78.6537C93.9028 77.1614 93.3946 75.4262 93.3947 73.6539H93.3921Z" fill="#FED100"/>
<path d="M46.9896 3.95215H32.2887C32.2714 18.4677 35.0714 32.8487 40.5335 46.2974C37.6324 31.8625 39.9187 16.8668 46.9896 3.95215Z" fill="#FFDF5A"/>
<path d="M41.9456 175.036H102.012V137.501C102.012 137.501 81.9311 175.036 41.9456 175.036Z" fill="#8D492B"/>
<path d="M93.8788 146.157H50.0747V167.608H93.8788V146.157Z" fill="#FED100"/>
<path d="M4.57946 12.4223C5.89435 9.97072 7.82658 7.90501 10.185 6.42953C12.5433 4.95405 15.2461 4.11995 18.0258 4.00977C18.107 4.00977 18.1908 4.00977 18.2746 4.00977H18.5365C18.6177 4.00977 18.6989 4.00977 18.7801 4.00977C20.4328 4.06407 22.0661 4.3833 23.6176 4.95526C21.3133 2.81777 18.315 1.58368 15.1736 1.47974C15.1055 1.47974 15.0374 1.47974 14.9694 1.47974H14.7415C14.6682 1.47974 14.6001 1.47974 14.5293 1.47974C12.1861 1.57337 9.9079 2.27691 7.91989 3.5208C5.93187 4.76469 4.30289 6.50586 3.19397 8.57221C0.815844 13.0744 0.836796 18.1109 2.35062 23.006C2.10563 19.3402 2.87688 15.6779 4.57946 12.4223Z" fill="#FFDF5A"/>
<path d="M50.5676 72.7214C54.2409 77.0349 58.4885 80.8243 63.1916 83.9834L63.2414 84.0096C65.9102 86.042 67.2433 88.9387 67.2433 91.7176V91.7359C70.304 92.8734 73.6715 92.8734 76.7322 91.7359V91.7176C76.7322 88.9387 78.0653 86.042 80.7342 84.0096L80.7813 83.9834C90.1588 77.6801 97.6357 68.9343 102.404 58.691C110.998 40.3203 115.437 20.2813 115.406 0C96.2156 76.0188 50.7772 72.7214 50.5676 72.7214Z" fill="#FCC200"/>
<path d="M93.0895 49.2529C91.4657 51.4179 88.2185 55.7472 83.3479 59.5355C78.1871 64.8538 84.9457 61.2242 87.3528 61.8379L94.93 55.3431C94.5692 52.2761 94.8328 46.9286 93.09 49.2522L93.0895 49.2529Z" fill="#FCC200" fill-opacity="0.3"/>
</svg>
