<svg width="140" height="244" viewBox="0 0 140 244" fill="none" xmlns="http://www.w3.org/2000/svg">
<g filter="url(#filter0_d_333_416)">
<g filter="url(#filter1_d_333_416)">
<ellipse cx="69.5" cy="64" rx="65.5" ry="64" fill="#3090CC"/>
</g>
<path d="M71.128 78V50.976C70.456 52.512 69.32 53.792 67.72 54.816C66.12 55.84 64.504 56.416 62.872 56.544L62.056 52.272C64.552 52.016 66.616 51.216 68.248 49.872C69.912 48.496 71.032 46.672 71.608 44.4H75.304V78H71.128Z" fill="#FFF2F2"/>
</g>
<path d="M68 242.5C68 243.328 68.6716 244 69.5 244C70.3284 244 71 243.328 71 242.5L68 242.5ZM69.5 166.5C73.9183 166.5 77.5 162.918 77.5 158.5C77.5 154.082 73.9183 150.5 69.5 150.5C65.0817 150.5 61.5 154.082 61.5 158.5C61.5 162.918 65.0817 166.5 69.5 166.5ZM71 242.5L71 158.5L68 158.5L68 242.5L71 242.5Z" fill="#3090CC"/>
<defs>
<filter id="filter0_d_333_416" x="4" y="0" width="136" height="133" filterUnits="userSpaceOnUse" color-interpolation-filters="sRGB">
<feFlood flood-opacity="0" result="BackgroundImageFix"/>
<feColorMatrix in="SourceAlpha" type="matrix" values="0 0 0 0 0 0 0 0 0 0 0 0 0 0 0 0 0 0 127 0" result="hardAlpha"/>
<feOffset dx="5" dy="5"/>
<feComposite in2="hardAlpha" operator="out"/>
<feColorMatrix type="matrix" values="0 0 0 0 0 0 0 0 0 0 0 0 0 0 0 0 0 0 1 0"/>
<feBlend mode="normal" in2="BackgroundImageFix" result="effect1_dropShadow_333_416"/>
<feBlend mode="normal" in="SourceGraphic" in2="effect1_dropShadow_333_416" result="shape"/>
</filter>
<filter id="filter1_d_333_416" x="0" y="0" width="139" height="136" filterUnits="userSpaceOnUse" color-interpolation-filters="sRGB">
<feFlood flood-opacity="0" result="BackgroundImageFix"/>
<feColorMatrix in="SourceAlpha" type="matrix" values="0 0 0 0 0 0 0 0 0 0 0 0 0 0 0 0 0 0 127 0" result="hardAlpha"/>
<feOffset dy="4"/>
<feGaussianBlur stdDeviation="2"/>
<feComposite in2="hardAlpha" operator="out"/>
<feColorMatrix type="matrix" values="0 0 0 0 0 0 0 0 0 0 0 0 0 0 0 0 0 0 0.25 0"/>
<feBlend mode="normal" in2="BackgroundImageFix" result="effect1_dropShadow_333_416"/>
<feBlend mode="normal" in="SourceGraphic" in2="effect1_dropShadow_333_416" result="shape"/>
</filter>
</defs>
</svg>
