<svg width="137" height="247" viewBox="0 0 137 247" fill="none" xmlns="http://www.w3.org/2000/svg">
<g filter="url(#filter0_d_333_422)">
<ellipse cx="66" cy="178" rx="66" ry="64" fill="#FCBD00"/>
</g>
<path d="M63.952 178.512C66.512 177.2 68.288 176.208 69.28 175.536C72 173.744 73.36 171.456 73.36 168.672C73.36 166.56 72.656 164.864 71.248 163.584C69.872 162.304 68 161.664 65.632 161.664C63.488 161.664 61.696 162.336 60.256 163.68C58.848 164.992 58.144 166.576 58.144 168.432C58.144 170.384 58.768 172.128 60.016 173.664L56.464 175.968C54.768 173.728 53.92 171.312 53.92 168.72C53.92 165.68 55.024 163.12 57.232 161.04C59.44 158.96 62.304 157.92 65.824 157.92C69.44 157.92 72.288 158.896 74.368 160.848C76.48 162.8 77.536 165.344 77.536 168.48C77.536 171.168 76.864 173.408 75.52 175.2C74.208 176.96 72.144 178.544 69.328 179.952C67.6 180.848 65.936 181.76 64.336 182.688C61.68 184.192 60.176 186 59.824 188.112H77.584V192H54.64C54.64 188.768 55.424 186.096 56.992 183.984C58.56 181.872 60.88 180.048 63.952 178.512Z" fill="#FFF2F2"/>
<path d="M64.5 101C68.9183 101 72.5 97.4183 72.5 93C72.5 88.5817 68.9183 85 64.5 85C60.0817 85 56.5 88.5817 56.5 93C56.5 97.4183 60.0817 101 64.5 101ZM66 93L66 5.73473e-08L63 -5.73473e-08L63 93L66 93Z" fill="#FCBD00"/>
<defs>
<filter id="filter0_d_333_422" x="0" y="114" width="137" height="133" filterUnits="userSpaceOnUse" color-interpolation-filters="sRGB">
<feFlood flood-opacity="0" result="BackgroundImageFix"/>
<feColorMatrix in="SourceAlpha" type="matrix" values="0 0 0 0 0 0 0 0 0 0 0 0 0 0 0 0 0 0 127 0" result="hardAlpha"/>
<feOffset dx="5" dy="5"/>
<feComposite in2="hardAlpha" operator="out"/>
<feColorMatrix type="matrix" values="0 0 0 0 0 0 0 0 0 0 0 0 0 0 0 0 0 0 1 0"/>
<feBlend mode="normal" in2="BackgroundImageFix" result="effect1_dropShadow_333_422"/>
<feBlend mode="normal" in="SourceGraphic" in2="effect1_dropShadow_333_422" result="shape"/>
</filter>
</defs>
</svg>
