<svg width="137" height="251" viewBox="0 0 137 251" fill="none" xmlns="http://www.w3.org/2000/svg">
<g filter="url(#filter0_d_333_423)">
<ellipse cx="66" cy="64" rx="66" ry="64" fill="#CF3348"/>
<path d="M53.056 68.784L57.04 67.008C57.328 69.312 58.224 71.152 59.728 72.528C61.232 73.904 63.136 74.592 65.44 74.592C67.616 74.592 69.456 73.904 70.96 72.528C72.464 71.152 73.216 69.36 73.216 67.152C73.216 64.816 72.512 62.976 71.104 61.632C69.728 60.256 67.888 59.568 65.584 59.568C63.6 59.568 62 60.128 60.784 61.248L58.384 58.272L69.712 48.288H54.496V44.4H76.048V47.568L65.536 56.64C66.016 56.544 66.608 56.496 67.312 56.496C70.032 56.496 72.384 57.456 74.368 59.376C76.352 61.264 77.344 63.76 77.344 66.864C77.344 70.288 76.208 73.088 73.936 75.264C71.696 77.408 68.864 78.48 65.44 78.48C62.208 78.48 59.488 77.6 57.28 75.84C55.072 74.048 53.664 71.696 53.056 68.784Z" fill="#FFF2F2"/>
</g>
<path d="M64.5 165C68.9183 165 72.5 161.418 72.5 157C72.5 152.582 68.9183 149 64.5 149C60.0817 149 56.5 152.582 56.5 157C56.5 161.418 60.0817 165 64.5 165ZM66 251L66 157L63 157L63 251L66 251Z" fill="#CC0A11"/>
<defs>
<filter id="filter0_d_333_423" x="0" y="0" width="137" height="133" filterUnits="userSpaceOnUse" color-interpolation-filters="sRGB">
<feFlood flood-opacity="0" result="BackgroundImageFix"/>
<feColorMatrix in="SourceAlpha" type="matrix" values="0 0 0 0 0 0 0 0 0 0 0 0 0 0 0 0 0 0 127 0" result="hardAlpha"/>
<feOffset dx="5" dy="5"/>
<feComposite in2="hardAlpha" operator="out"/>
<feColorMatrix type="matrix" values="0 0 0 0 0 0 0 0 0 0 0 0 0 0 0 0 0 0 1 0"/>
<feBlend mode="normal" in2="BackgroundImageFix" result="effect1_dropShadow_333_423"/>
<feBlend mode="normal" in="SourceGraphic" in2="effect1_dropShadow_333_423" result="shape"/>
</filter>
</defs>
</svg>
