<svg width="131" height="238" viewBox="0 0 131 238" fill="none" xmlns="http://www.w3.org/2000/svg">
<ellipse cx="65.5" cy="173.5" rx="65.5" ry="64.5" fill="#8DD0C0"/>
<path d="M68.848 188V179.408H53.728V175.04C56.64 172.192 58.544 169.52 59.44 167.024C60.368 164.528 60.864 161.04 60.928 156.56V154.4H65.104V156.56C65.104 160.592 64.592 164.144 63.568 167.216C62.576 170.256 60.768 173.072 58.144 175.664H68.848V164.768H73.024V175.664H78.736V179.408H73.024V188H68.848Z" fill="#FFF2F2"/>
<path d="M64.5 102C68.9183 102 72.5 98.4183 72.5 94C72.5 89.5817 68.9183 86 64.5 86C60.0817 86 56.5 89.5817 56.5 94C56.5 98.4183 60.0817 102 64.5 102ZM66 94L66 5.73473e-08L63 -5.73473e-08L63 94L66 94Z" fill="#8DD0C0"/>
</svg>
