<svg width="112" height="111" viewBox="0 0 112 111" fill="none" xmlns="http://www.w3.org/2000/svg">
<path d="M59.9818 1.18196C60.3585 -0.54683 62.8962 -0.301644 62.9349 1.46728L63.2582 16.3068C63.6757 35.4686 77.169 51.8481 95.8963 55.9263L110.399 59.0846C112.128 59.4613 111.883 61.999 110.114 62.0377L95.2746 62.361C76.1129 62.7785 59.7334 76.2718 55.6552 94.9991L52.4969 109.502C52.1202 111.231 49.5825 110.986 49.5438 109.217L49.2205 94.3774C48.803 75.2158 35.3097 58.8363 16.5822 54.758L2.0791 51.5997C0.350311 51.2231 0.595497 48.6853 2.36442 48.6466L17.2039 48.3233C36.3657 47.9058 52.7453 34.4125 56.8235 15.6851L59.9818 1.18196Z" fill="#E35B5B"/>
</svg>
