<svg width="112" height="112" viewBox="0 0 112 112" fill="none" xmlns="http://www.w3.org/2000/svg">
<path d="M59.8756 2.17097C60.2523 0.442184 62.79 0.68737 62.8287 2.45629L63.152 17.2958C63.5695 36.4576 77.0628 52.8371 95.7901 56.9153L110.293 60.0737C112.022 60.4503 111.777 62.988 110.008 63.0267L95.1684 63.3501C76.0067 63.7675 59.6272 77.2608 55.549 95.9881L52.3907 110.491C52.014 112.22 49.4763 111.975 49.4376 110.206L49.1143 95.3664C48.6968 76.2048 35.2035 59.8253 16.476 55.747L1.9729 52.5887C0.24411 52.2121 0.489296 49.6744 2.25822 49.6356L17.0977 49.3123C36.2595 48.8948 52.6391 35.4016 56.7173 16.6741L59.8756 2.17097Z" fill="#82D965"/>
</svg>
