<svg width="109" height="109" viewBox="0 0 109 109" fill="none" xmlns="http://www.w3.org/2000/svg">
<path d="M39.9695 2.15736C39.7408 0.402859 42.2124 -0.222537 42.8457 1.4296L48.1568 15.2899C55.0148 33.1873 73.2433 44.0538 92.2484 41.5745L106.967 39.6543C108.721 39.4256 109.347 41.8972 107.694 42.5305L93.8342 47.8416C75.937 54.6996 65.0704 72.9281 67.5498 91.9332L69.4699 106.652C69.6987 108.406 67.227 109.032 66.5937 107.379L61.2826 93.519C54.4246 75.6218 36.1962 64.7552 17.1909 67.2346L2.47255 69.1548C0.718045 69.3835 0.0926488 66.9118 1.74479 66.2786L15.6051 60.9675C33.5025 54.1094 44.369 35.881 41.8896 16.8757L39.9695 2.15736Z" fill="#FFF500"/>
</svg>
