<svg width="32" height="32" viewBox="0 0 32 32" fill="none" xmlns="http://www.w3.org/2000/svg">
<g clip-path="url(#clip0_396_452)">
<path d="M16 0C7.16429 0 0 7.16429 0 16C0 24.8357 7.16429 32 16 32C24.8357 32 32 24.8357 32 16C32 7.16429 24.8357 0 16 0ZM22.3036 20.9179L21.2821 22.3107C21.2599 22.341 21.2319 22.3667 21.1998 22.3862C21.1676 22.4056 21.1319 22.4186 21.0948 22.4242C21.0576 22.4299 21.0197 22.4281 20.9832 22.419C20.9467 22.41 20.9124 22.3938 20.8821 22.3714L14.975 18.0643C14.9382 18.0379 14.9083 18.003 14.8878 17.9626C14.8673 17.9222 14.8568 17.8774 14.8571 17.8321V8C14.8571 7.84286 14.9857 7.71429 15.1429 7.71429H16.8607C17.0179 7.71429 17.1464 7.84286 17.1464 8V16.8393L22.2393 20.5214C22.3679 20.6107 22.3964 20.7893 22.3036 20.9179Z" fill="black"/>
</g>
<defs>
<clipPath id="clip0_396_452">
<rect width="32" height="32" fill="white"/>
</clipPath>
</defs>
</svg>
