<svg width="217" height="87" viewBox="0 0 217 87" fill="none" xmlns="http://www.w3.org/2000/svg">
<rect x="0.5" y="0.5" width="216" height="86" fill="#E486A1" stroke="black"/>
<path d="M66.8408 18.5062C63.2786 18.0705 56.6155 7.38394 48.5942 7.8196C40.5985 8.25527 37.9076 14.047 33.9098 16.7123C29.9119 19.3775 10.7683 18.9419 10.7683 31.8324C10.7683 44.7229 23.6588 43.3903 23.6588 43.3903V73.6305C50.7981 82.5231 70.3774 73.6305 70.3774 73.6305V42.9546C81.064 40.2894 84.6262 30.0641 80.6027 23.3754C76.5792 16.6866 70.3774 18.9419 66.8408 18.5062Z" fill="white"/>
<path d="M66.8408 18.5062C63.4067 18.0705 57.0511 8.07585 49.3886 7.81958C51.8232 9.86976 53.694 12.6375 54.2834 15.764C55.0522 19.7875 53.3608 24.3748 49.7986 26.3994C48.1328 27.3476 46.1852 27.7063 44.545 28.7314C42.9049 29.7309 41.6235 31.8067 42.4692 33.5494C43.2124 35.087 45.1857 35.5483 46.9027 35.4971C48.6198 35.4458 50.388 35.1126 51.9769 35.8046C53.9246 36.6503 55.001 39.0849 54.3603 41.1094C53.7196 43.134 51.4644 44.4922 49.363 44.1847C48.7479 44.0822 48.1328 43.8772 47.5178 43.9797C46.9027 44.1078 46.3389 44.7485 46.5952 45.3123C49.8755 45.4661 52.8995 47.5419 54.5909 50.3609C56.3079 53.1543 56.7949 56.5883 56.4105 59.8686C56.3079 60.6887 56.1542 61.5087 55.6929 62.1751C55.1804 62.9695 54.309 63.4564 53.4633 63.8408C47.6972 66.5317 40.8547 66.4292 35.3448 69.607C34.6529 70.017 33.961 70.4783 33.5253 71.119C32.9871 71.8878 32.8077 72.836 32.7821 73.7586C32.7565 74.5787 32.859 75.3731 33.0384 76.1419C55.2316 80.6011 70.4286 73.6817 70.4286 73.6817V42.9546C81.1152 40.2893 84.6774 30.0641 80.6539 23.3753C76.6304 16.7123 70.3773 18.9418 66.8408 18.5062Z" fill="#CAA1F3"/>
<path d="M71.3768 16.6866C70.7361 16.6866 70.1211 16.7122 69.5317 16.7378C69.0191 16.7635 68.5322 16.7635 68.0965 16.7635C67.6865 16.7635 67.3533 16.7378 67.0714 16.7122C66.3026 16.6097 64.3806 14.867 62.8173 13.4575C59.1526 10.126 54.5909 6 49.1067 6C48.9017 6 48.7223 5.99999 48.5173 6.02562C42.1873 6.3844 38.7789 9.76721 36.0368 12.4837C34.9861 13.5344 33.9866 14.5339 32.9359 15.2258C32.1414 15.764 29.8606 16.2765 27.6567 16.7635C24.0432 17.5835 19.5584 18.6086 15.8937 20.6844C11.3321 23.2728 9 27.04 9 31.8323C9 38.3673 12.0753 41.6219 14.6636 43.1852C17.2264 44.7228 20.071 45.1329 21.8905 45.2098V73.656C21.8905 74.4249 22.3774 75.1168 23.1206 75.3474C31.2957 78.0383 39.6246 79.3965 47.851 79.3965C61.9203 79.3965 70.7618 75.4499 71.1205 75.2706C71.7612 74.9887 72.1713 74.348 72.1713 73.6304V44.3128C77.1686 42.6983 81.0383 39.3155 82.8835 34.8563C84.6005 30.7047 84.3186 26.0918 82.1659 22.4527C79.0906 17.3529 74.7852 16.6866 71.3768 16.6866ZM79.5775 33.4981C78.0143 37.2653 74.5033 40.0843 69.9673 41.2375C69.1729 41.4425 68.6091 42.1601 68.6091 42.9802V72.4772C65.9951 73.451 58.6657 75.7831 48.2866 75.86C43.2893 75.3474 36.985 73.6304 43.0843 69.5557C50.7212 64.4815 66.0976 70.4014 66.0976 70.4014C66.0976 70.4014 58.1788 65.891 43.7762 66.301C33.961 66.5829 28.1436 68.915 25.4271 70.3757C25.4271 66.506 25.4271 62.6619 25.4271 58.7922C25.4271 55.8194 25.4271 52.8467 25.4271 49.8483C25.4271 47.2856 24.4276 43.9284 27.7848 43.0314C29.5275 42.5701 31.347 43.1083 33.0897 43.5183C36.1137 44.2103 39.2402 44.4922 42.3411 44.3128C40.8547 43.544 39.7784 41.9807 39.6246 40.3149C42.9305 43.0314 47.6716 43.8771 51.6951 42.4932C53.3608 41.9294 54.9241 40.9812 56.6668 40.7506C56.2567 41.135 55.8211 41.4938 55.411 41.8782C60.2546 42.9033 65.4569 41.9807 69.6598 39.3924C66.5333 40.7506 63.0223 41.135 59.6652 40.5199C59.4345 40.4687 59.127 40.3918 59.0757 40.1612C58.9988 39.8793 59.2551 39.623 59.4858 39.4436C60.6902 38.4698 61.5616 37.0859 61.9203 35.5995C59.9983 37.0346 57.9994 38.3673 55.9236 39.5717C54.6678 40.2893 53.3865 40.9812 52.0026 41.3144C50.7212 41.6219 49.3886 41.6219 48.056 41.5194C43.1099 41.1094 38.3432 39.1104 34.576 35.907C34.6017 38.0085 35.7036 40.033 37.4207 41.2375C37.9845 41.6476 38.702 42.1345 38.5995 42.8008C34.3198 42.4676 30.04 42.032 25.7859 41.5194C22.48 41.1094 19.6353 42.0832 16.5344 40.1868C13.9204 38.5979 12.5878 35.8302 12.5878 31.9092C12.5878 26.9119 16.3807 24.0929 20.686 22.4783C25.8627 20.5307 31.0395 23.4265 34.2941 27.5782C32.6027 25.3998 31.6545 22.2733 33.0897 19.9412C33.9866 18.5061 35.5499 17.7373 36.8056 16.6609C37.9588 15.7127 38.9583 14.6108 40.0859 13.6113C42.5717 11.3561 45.3139 9.84408 48.7479 9.63906C48.8761 9.63906 49.0042 9.63906 49.1323 9.63906C53.9246 9.63906 59.8958 14.4314 61.9972 18.5317C62.6123 19.7362 63.1505 20.9663 63.4067 22.2989C63.663 23.6059 63.5861 25.0154 62.9967 26.2456C63.9193 25.6818 64.6625 24.8873 65.175 23.9391C65.6363 23.0934 65.9182 22.0683 66.6614 21.4789C67.0202 21.197 67.4558 21.0176 67.8915 20.8382C71.8894 19.2493 76.8611 20.6332 79.1419 24.3748C80.6795 26.9631 80.8589 30.3972 79.5775 33.4981Z" fill="black"/>
<path d="M69.3523 33.3698C69.6598 31.9347 69.8392 30.3971 69.3267 29.0132C68.8141 27.6293 67.4815 26.4761 66.0207 26.6042C66.4052 28.2444 66.6102 29.9358 66.6614 31.6272C66.6871 32.3704 66.6614 33.1136 66.3795 33.8055C65.9182 34.9587 64.8163 35.7275 64.3037 36.8551C65.6107 36.932 66.9433 37.0345 68.2503 36.8295C69.5573 36.6245 70.8643 36.112 71.7869 35.1637C72.12 34.805 72.4019 34.3949 72.6326 33.9593C71.2487 34.4462 69.8392 34.805 68.3785 34.9844C68.9679 34.7537 69.2242 34.0105 69.3523 33.3698Z" fill="black"/>
<path d="M20.8398 36.2403C20.276 35.8047 19.8916 35.1896 19.6097 34.5489C19.0971 33.3701 18.8665 32.0631 18.9946 30.7817C19.0459 30.2691 19.1484 29.731 19.0971 29.2184C19.0459 28.7059 18.7896 28.1421 18.3027 27.9371C17.6876 27.6552 16.9188 27.9883 16.5344 28.5521C16.1243 29.1159 16.0218 29.8079 15.8937 30.4742C15.6887 31.8068 15.458 33.1907 15.8168 34.472C16.4319 36.6503 18.5333 38.1111 20.6347 38.9312C23.6075 40.1357 26.9391 40.4944 30.0912 40.0075C27.5285 39.0081 24.9658 38.0342 22.403 37.0348C21.8905 36.8297 21.3267 36.5991 20.8398 36.2403Z" fill="black"/>
<path d="M37.5232 17.6093C36.5493 18.7625 35.6524 20.0182 35.2167 21.4534C34.6529 23.401 34.9861 25.5793 35.9599 27.3733C36.9338 29.1672 38.4714 30.6023 40.214 31.653C38.8302 29.731 37.7538 27.5526 37.0619 25.2718C36.9594 24.8874 36.8569 24.4517 37.0619 24.1186C37.3694 23.6317 38.1382 23.6573 38.497 23.196C39.0096 22.5297 38.2151 21.6071 38.2151 20.7614C38.2151 20.0951 38.7277 19.5313 39.2658 19.1469C39.804 18.7625 40.4191 18.4293 40.8291 17.8912C41.2391 17.353 41.316 16.5073 40.8035 16.0716C39.6246 15.6103 38.3689 16.6098 37.5232 17.6093Z" fill="black"/>
<path d="M104.426 33.137C100.291 33.137 96.9414 31.0847 96.9414 26.9199C96.9414 22.6947 100.291 20.6726 104.426 20.6726C109.013 20.6726 111.126 22.574 111.911 23.5397C112.182 23.8717 112.605 23.9924 112.967 23.8415L116.045 22.7249C116.649 22.4834 116.86 21.7591 116.498 21.246C114.144 17.9866 109.617 16.387 104.426 16.387C96.7905 16.387 90.6036 19.8276 90.6036 26.9199C90.6036 33.9216 96.7905 37.4225 104.426 37.4225C110.1 37.4225 114.959 35.4608 117.071 31.5676C117.373 31.0545 117.132 30.4208 116.589 30.2095L113.359 28.9721C112.937 28.791 112.454 28.9721 112.212 29.3645C111.428 30.632 109.285 33.137 104.426 33.137ZM132.49 16.387C124.733 16.387 118.426 19.8276 118.426 26.9199C118.426 33.9216 124.733 37.4225 132.49 37.4225C140.246 37.4225 146.554 33.9216 146.554 26.9199C146.554 19.8276 140.246 16.387 132.49 16.387ZM132.49 33.137C128.536 33.137 125.307 31.0847 125.307 26.9199C125.307 22.6947 128.536 20.6726 132.49 20.6726C136.443 20.6726 139.673 22.6947 139.673 26.9199C139.673 31.0847 136.443 33.137 132.49 33.137ZM161.815 16.387C154.059 16.387 147.751 19.8276 147.751 26.9199C147.751 33.9216 154.059 37.4225 161.815 37.4225C169.571 37.4225 175.879 33.9216 175.879 26.9199C175.879 19.8276 169.571 16.387 161.815 16.387ZM161.815 33.137C157.861 33.137 154.632 31.0847 154.632 26.9199C154.632 22.6947 157.861 20.6726 161.815 20.6726C165.769 20.6726 168.998 22.6947 168.998 26.9199C168.998 31.0847 165.769 33.137 161.815 33.137ZM198.897 16.719H194.46C194.279 16.719 194.098 16.7794 193.947 16.8699L182.78 24.2942V17.6848C182.78 17.1415 182.358 16.719 181.815 16.719H178.042C177.499 16.719 177.076 17.1415 177.076 17.6848V36.0946C177.076 36.6077 177.499 37.0302 178.042 37.0302H181.815C182.358 37.0302 182.78 36.6077 182.78 36.0946V29.9982L186.493 27.4028L195.456 36.7586C195.637 36.9396 195.879 37.0302 196.15 37.0302H200.617C201.462 37.0302 201.884 36.0342 201.311 35.4306L190.718 24.4753L199.44 18.4393C200.194 17.9262 199.832 16.719 198.897 16.719ZM104.667 53.387C96.9112 53.387 90.6036 56.8276 90.6036 63.9199C90.6036 70.9216 96.9112 74.4225 104.667 74.4225C112.424 74.4225 118.731 70.9216 118.731 63.9199C118.731 56.8276 112.424 53.387 104.667 53.387ZM104.667 70.137C100.714 70.137 97.4846 68.0847 97.4846 63.9199C97.4846 59.6947 100.714 57.6726 104.667 57.6726C108.621 57.6726 111.85 59.6947 111.85 63.9199C111.85 68.0847 108.621 70.137 104.667 70.137ZM119.929 54.6848V73.0946C119.929 73.6077 120.351 74.0302 120.864 74.0302H124.667C125.21 74.0302 125.633 73.6077 125.633 73.0946V65.6703H136.92C137.464 65.6703 137.886 65.2478 137.886 64.7046V62.0487C137.886 61.5055 137.464 61.083 136.92 61.083H125.633V58.6685H140.15C140.693 58.6685 141.115 58.246 141.115 57.733V54.6848C141.115 54.1415 140.693 53.719 140.15 53.719H120.864C120.351 53.719 119.929 54.1415 119.929 54.6848ZM142.328 54.6848V73.0946C142.328 73.6077 142.751 74.0302 143.264 74.0302H147.066C147.61 74.0302 148.032 73.6077 148.032 73.0946V65.6703H159.319C159.863 65.6703 160.285 65.2478 160.285 64.7046V62.0487C160.285 61.5055 159.863 61.083 159.319 61.083H148.032V58.6685H162.549C163.092 58.6685 163.515 58.246 163.515 57.733V54.6848C163.515 54.1415 163.092 53.719 162.549 53.719H143.264C142.751 53.719 142.328 54.1415 142.328 54.6848Z" fill="black"/>
</svg>
