<svg width="392" height="379" viewBox="0 0 392 379" fill="none" xmlns="http://www.w3.org/2000/svg">
<path d="M301.803 73.2434C301.803 73.2434 298.115 57.4687 279.459 41.8044C260.804 26.1401 207.596 26.9745 181.371 43.0671C155.146 59.1597 157.852 85.2283 149.158 90.6498C140.441 95.974 98.6203 102.465 77.6638 134.065C56.7074 165.666 71.6845 187.119 70.0483 194.177C68.412 201.235 46.7826 222.929 51.618 265.136C56.4534 307.343 108.932 303.393 122.42 296.953C132.195 292.203 130.757 276.827 129.206 268.871L128.045 263.905C128.045 263.905 128.597 265.83 129.206 268.871L144.686 335.086C144.686 335.086 166.919 351.557 228.193 335.589C289.466 319.621 315.116 293.598 315.116 293.598L297.018 216.186C297.018 216.186 329.572 198.614 336.962 180.146C344.375 161.776 346.5 121.228 336.659 100.217C326.502 79.1764 301.803 73.2434 301.803 73.2434Z" fill="white"/>
<path d="M128.044 263.905L129.206 268.871C128.597 265.83 128.044 263.905 128.044 263.905Z" fill="white"/>
<path d="M301.803 73.2432C301.803 73.2432 298.115 57.4686 279.459 41.8042C260.803 26.1399 207.596 26.9743 181.371 43.0669C177.6 45.3863 174.482 47.8612 171.724 50.5599C181.51 49.8123 191.603 51.2525 200.915 54.6213C218.57 61.1741 233.187 74.4965 243.523 90.1546C251.179 101.818 256.622 115.436 255.657 129.321C254.693 143.205 246.015 157.044 232.685 161.084C228.404 147.605 223.957 133.856 214.76 123.067C205.682 112.352 190.581 105.304 177.245 109.757C176.446 123.911 185.424 136.395 190.828 149.406C196.231 162.418 196.681 180.593 184.326 187.486C173.145 193.694 159.694 186.672 147.606 182.412C129.172 176.041 108.42 176.888 90.6182 184.644C88.71 193.614 98.1239 201.375 107.175 202.75C116.226 204.126 125.482 201.551 134.666 202.177C143.85 202.803 153.999 208.44 154.393 217.591C154.638 222.155 152.518 227.58 155.743 230.831C158.298 233.417 162.674 232.805 166.157 231.888C187.533 226.685 209.008 221.46 230.407 216.354C236.422 214.845 242.969 213.417 248.829 215.642C253.773 217.464 257.421 221.643 260.558 225.839C268.474 236.415 274.4 248.585 277.794 261.348C278.438 263.662 278.932 266.216 278.002 268.385C277.198 270.216 275.552 271.525 273.936 272.519C264.749 278.467 253.82 280.919 243.32 283.888C220.567 290.234 198.618 299.576 178.205 311.537C176.05 312.862 173.798 314.21 172.335 316.298C170.349 319.227 170.315 323.035 170.82 326.511C171.676 332.37 174.068 337.767 177.342 342.548C189.927 342.789 206.592 341.152 227.998 335.634C289.272 319.666 314.921 293.644 314.921 293.644L296.823 216.231C296.823 216.231 329.378 198.659 336.768 180.192C344.18 161.822 346.305 121.273 336.464 100.262C326.502 79.1763 301.803 73.2432 301.803 73.2432Z" fill="#E1E0E2"/>
<path d="M205.733 200.864L202.261 202.703C201.894 202.892 201.453 203.2 201.086 203.389C202.77 202.687 204.312 201.813 205.733 200.864Z" fill="#212A3A"/>
<path d="M306.93 67.9369C304.574 61.8125 298.413 49.0805 283.612 36.7256C266.632 22.518 229.781 21.2744 203.685 27.3753C193.558 29.7429 184.896 33.1031 177.99 37.3877C159.404 48.8189 153.724 64.9351 149.946 75.5744C148.63 79.1684 146.928 84.1877 145.656 84.8959C144.212 85.747 140.138 87.2127 135.75 88.6494C118.34 94.5681 89.3015 104.335 72.0464 130.244C54.8887 156.129 59.8185 176.337 62.3909 187.341C62.8462 189.288 63.4153 191.723 63.4255 192.645C63.0233 193.56 61.7259 195.917 60.6068 197.719C54.184 208.464 40.9364 230.868 44.9864 265.762C46.5244 279.369 52.596 289.965 62.9381 297.303C80.3848 309.553 105.026 308.209 116.905 305.431C120.119 304.68 122.874 303.728 125.097 302.695C126.759 301.895 128.255 300.827 129.631 299.683L138.236 336.491C138.578 337.952 139.406 339.298 140.653 340.239C141.637 340.933 164.334 357.193 222.856 343.512C225.096 342.988 227.433 342.442 229.65 341.821C291.994 325.602 318.377 299.203 319.559 298.105C321.136 296.504 321.729 294.209 321.228 292.067L304.222 219.328C313.965 213.559 336.214 198.909 342.748 182.491C350.971 161.877 352.641 119.382 342.257 97.3674C333.471 78.6767 314.845 70.6051 306.93 67.9369ZM334.463 165.942C334.066 171.273 333.162 174.873 330.959 177.75C329.003 180.364 325.965 182.306 321.302 184.321C311.802 188.493 301.334 189.4 291.004 189.145C282.954 188.973 280.952 183.485 283.013 175.609C284.406 170.148 287.706 165.372 290.57 160.491C300.804 143.208 306.08 121.846 299.969 102.735C300.404 110.747 300.255 118.894 299.453 126.887C299.017 131.61 298.266 136.304 296.862 140.843C291.984 156.875 279.261 168.784 265.923 178.064C262.834 180.224 259.17 183.442 255.584 184.794C251.51 186.26 246.42 186.012 242.09 186.819C235.326 188.195 226.852 191.922 222.139 184.5C219.865 180.924 219.545 176.48 219.173 172.254C217.809 156.757 215.514 140.349 205.877 128.122C202.214 123.432 197.615 119.578 192.988 116.038C206.009 132.199 213.824 152.451 214.986 173.232C215.644 185.71 212.766 196.242 202.358 202.68L205.831 200.842C204.312 201.813 202.77 202.687 201.183 203.366C201.011 203.509 200.816 203.554 200.547 203.72C196.438 205.913 192.96 208.164 189.321 209.733L184.943 212.092C176.067 216.734 166.911 220.621 156.609 221.797C185.414 219.376 211.899 205.276 240.308 200.278C249.672 198.602 259.481 197.952 268.611 200.542C291.723 207.154 293.551 230.347 298.172 250.114C301.382 263.844 304.569 277.476 307.779 291.206C300.062 297.734 274.497 316.65 226.495 329.208C224.279 329.829 222.136 330.329 219.994 330.83C219.605 330.921 219.313 330.99 218.923 331.081C208.438 331.478 194.347 331.383 189.363 328.954C181.009 324.848 191.014 311.418 212.087 302.281C233.16 293.143 303.566 285.926 303.566 285.926C303.566 285.926 231.93 284.805 189.03 301.612C164.87 311.163 153.904 319.169 148.875 324.453C149.443 323.807 147.19 317.247 147.008 316.468C145.574 310.334 144.398 307.939 149.272 303.307C152.448 300.203 155.671 297.293 159.299 294.802C165.231 290.745 171.917 288.154 178.58 285.467C167.867 284.891 156.955 287.853 147.963 293.755C147.424 294.086 146.811 294.537 146.083 294.502C145.671 294.496 145.311 294.272 144.95 294.048C140.317 290.921 138.905 284.884 137.699 279.723C136.606 275.049 134.79 271.674 132.964 267.376C128.603 257.51 131.445 244.625 136.605 235.511C137.776 233.491 139.165 231.523 141.148 230.341C138.249 231.121 135.984 233.294 133.891 235.324C130.05 239.097 126.494 243.215 124.116 247.981C120.86 254.699 121.266 263.025 122.928 270.133C124.519 278.696 124.585 288.642 119.675 290.92C118.941 291.297 117.257 291.999 114.141 292.727C101.579 295.664 82.5243 294.984 70.6204 286.676C63.493 281.667 59.2665 274.131 58.1066 264.338C54.5715 233.842 65.9248 214.756 72.0491 204.492C74.2646 200.791 75.8086 198.171 76.4535 195.658C77.2084 192.298 76.4117 188.89 75.3645 184.41C72.8768 174.209 69.1598 158.749 83.213 137.595C97.9604 115.456 124.416 106.498 140.216 101.161C145.922 99.2112 150.018 97.8428 152.809 96.1634C158.024 92.9929 160.105 86.9607 162.491 80.0356C166.016 70.0717 170.402 57.6469 185.022 48.5806C190.679 45.1016 198.218 42.2093 206.885 40.1832C233.078 34.0595 263.863 37.0295 275.501 46.8375C292.098 60.7239 295.668 74.6775 295.691 74.7748C296.26 77.2092 298.124 79.0327 300.517 79.603C300.735 79.6549 322.314 84.9823 330.723 102.94C339.833 122.581 335.896 145.273 334.463 165.942Z" fill="#212A3A"/>
<path d="M175.461 204.039C167.987 201.062 161.937 195.391 154.94 191.378C140.728 183.302 122.549 182.417 107.721 189.272C130.437 196.388 153.056 203.526 175.772 210.642C181.084 212.275 185.219 211.514 189.344 209.831L200.644 203.697C192.686 206.995 183.393 207.217 175.461 204.039Z" fill="#212A3A"/>
<path d="M201.086 203.388C201.453 203.2 201.894 202.891 202.261 202.703L200.622 203.6C200.816 203.554 200.891 203.434 201.086 203.388Z" fill="#212A3A"/>
<path d="M256.519 42.9568C245.182 38.8293 232.36 39.7729 221.16 44.1373C219.745 44.6735 218.255 45.3299 217.314 46.5768C216.373 47.8237 216.079 49.6385 217.079 50.8423C227.485 49.231 239.165 49.9921 247.235 56.8347C250.443 59.5763 252.792 63.0325 255.14 66.4886C257.797 70.3861 260.454 74.2835 263.111 78.181C264.654 80.3877 266.099 82.6172 268.308 84.1549C270.418 85.7154 273.291 86.5841 275.755 85.7001C278.024 84.8616 279.584 82.751 280.395 80.5076C281.837 76.5759 281.54 72.2294 280.509 68.2598C277.343 56.4712 267.857 47.0842 256.519 42.9568Z" fill="#212A3A"/>
<path d="M110.92 262.26C109.833 262.001 108.687 262.372 107.639 262.719C101.521 264.663 90.8322 267.265 85.3931 262.888C84.8897 262.492 84.4838 262.074 84.0551 261.558C80.5343 257.04 80.7226 249.5 73.5257 249.026C72.7012 249.013 71.7793 249.023 71.1558 248.553C70.5324 248.082 70.2301 247.229 70.048 246.45C69.508 243.7 71.0289 225.167 63.7551 234.468C61.7014 237.104 60.6417 241.357 60.0361 244.477C58.4972 251.512 58.9905 258.894 61.5806 265.579C66.1334 277.147 77.0344 285.998 89.2278 288.076C96.292 289.3 103.949 288.229 109.43 283.559C114.911 278.888 117.127 270.36 113.362 264.359C112.723 263.379 112.008 262.519 110.92 262.26Z" fill="#212A3A"/>
</svg>
