<svg width="703" height="1082" viewBox="0 0 703 1082" fill="none" xmlns="http://www.w3.org/2000/svg">
<rect x="1.99994" width="701" height="938" fill="#D9D9D9"/>
<rect x="3.49994" y="1.72656" width="66.9612" height="103.975" fill="#C9BFFE" stroke="#FABBCD"/>
<rect x="73.4611" y="1.72656" width="66.9612" height="103.975" fill="#C9BFFE" stroke="#FABBCD"/>
<rect x="143.422" y="1.72656" width="66.9612" height="103.975" fill="#C9BFFE" stroke="#FABBCD"/>
<rect x="213.383" y="1.72656" width="66.9612" height="103.975" fill="#C9BFFE" stroke="#FABBCD"/>
<rect x="283.345" y="1.72656" width="66.9612" height="103.975" fill="#C9BFFE" stroke="#FABBCD"/>
<rect x="353.306" y="1.72656" width="66.9612" height="103.975" fill="#C9BFFE" stroke="#FABBCD"/>
<rect x="423.267" y="1.72656" width="66.9612" height="103.975" fill="#C9BFFE" stroke="#FABBCD"/>
<rect x="493.228" y="1.72656" width="66.9612" height="103.975" fill="#C9BFFE" stroke="#FABBCD"/>
<rect x="563.189" y="1.72656" width="66.9612" height="103.975" fill="#C9BFFE" stroke="#FABBCD"/>
<rect x="633.151" y="1.72656" width="66.9612" height="103.975" fill="#C9BFFE" stroke="#FABBCD"/>
<rect x="3.49994" y="110.149" width="66.9612" height="103.975" fill="#C9BFFE" stroke="#FABBCD"/>
<rect x="73.4611" y="110.149" width="66.9612" height="103.975" fill="#C9BFFE" stroke="#FABBCD"/>
<rect x="143.422" y="110.149" width="66.9612" height="103.975" fill="#C9BFFE" stroke="#FABBCD"/>
<rect x="213.383" y="110.149" width="66.9612" height="103.975" fill="#C9BFFE" stroke="#FABBCD"/>
<rect x="283.345" y="110.149" width="66.9612" height="103.975" fill="#C9BFFE" stroke="#FABBCD"/>
<rect x="353.306" y="110.149" width="66.9612" height="103.975" fill="#C9BFFE" stroke="#FABBCD"/>
<rect x="423.267" y="110.149" width="66.9612" height="103.975" fill="#C9BFFE" stroke="#FABBCD"/>
<rect x="493.228" y="110.149" width="66.9612" height="103.975" fill="#C9BFFE" stroke="#FABBCD"/>
<rect x="563.189" y="110.149" width="66.9612" height="103.975" fill="#C9BFFE" stroke="#FABBCD"/>
<rect x="633.151" y="110.149" width="66.9612" height="103.975" fill="#C9BFFE" stroke="#FABBCD"/>
<rect x="3.49994" y="218.571" width="66.9612" height="103.975" fill="#C9BFFE" stroke="#FABBCD"/>
<rect x="73.4611" y="218.571" width="66.9612" height="103.975" fill="#C9BFFE" stroke="#FABBCD"/>
<rect x="143.422" y="218.571" width="66.9612" height="103.975" fill="#C9BFFE" stroke="#FABBCD"/>
<rect x="213.383" y="218.571" width="66.9612" height="103.975" fill="#C9BFFE" stroke="#FABBCD"/>
<rect x="283.345" y="218.571" width="66.9612" height="103.975" fill="#C9BFFE" stroke="#FABBCD"/>
<rect x="353.306" y="218.571" width="66.9612" height="103.975" fill="#C9BFFE" stroke="#FABBCD"/>
<rect x="423.267" y="218.571" width="66.9612" height="103.975" fill="#C9BFFE" stroke="#FABBCD"/>
<rect x="493.228" y="218.571" width="66.9612" height="103.975" fill="#C9BFFE" stroke="#FABBCD"/>
<rect x="563.189" y="218.571" width="66.9612" height="103.975" fill="#C9BFFE" stroke="#FABBCD"/>
<rect x="633.151" y="218.571" width="66.9612" height="103.975" fill="#C9BFFE" stroke="#FABBCD"/>
<rect x="3.49994" y="326.993" width="66.9612" height="103.975" fill="#C9BFFE" stroke="#FABBCD"/>
<rect x="73.4611" y="326.993" width="66.9612" height="103.975" fill="#C9BFFE" stroke="#FABBCD"/>
<rect x="143.422" y="326.993" width="66.9612" height="103.975" fill="#C9BFFE" stroke="#FABBCD"/>
<rect x="213.383" y="326.993" width="66.9612" height="103.975" fill="#C9BFFE" stroke="#FABBCD"/>
<rect x="283.345" y="326.993" width="66.9612" height="103.975" fill="#C9BFFE" stroke="#FABBCD"/>
<rect x="353.306" y="326.993" width="66.9612" height="103.975" fill="#C9BFFE" stroke="#FABBCD"/>
<rect x="423.267" y="326.993" width="66.9612" height="103.975" fill="#C9BFFE" stroke="#FABBCD"/>
<rect x="493.228" y="326.993" width="66.9612" height="103.975" fill="#C9BFFE" stroke="#FABBCD"/>
<rect x="563.189" y="326.993" width="66.9612" height="103.975" fill="#C9BFFE" stroke="#FABBCD"/>
<rect x="633.151" y="326.993" width="66.9612" height="103.975" fill="#C9BFFE" stroke="#FABBCD"/>
<rect x="3.49994" y="435.415" width="66.9612" height="103.975" fill="#C9BFFE" stroke="#FABBCD"/>
<rect x="73.4611" y="435.415" width="66.9612" height="103.975" fill="#C9BFFE" stroke="#FABBCD"/>
<rect x="143.422" y="435.415" width="66.9612" height="103.975" fill="#C9BFFE" stroke="#FABBCD"/>
<rect x="213.383" y="435.415" width="66.9612" height="103.975" fill="#C9BFFE" stroke="#FABBCD"/>
<rect x="283.345" y="435.415" width="66.9612" height="103.975" fill="#C9BFFE" stroke="#FABBCD"/>
<rect x="353.306" y="435.415" width="66.9612" height="103.975" fill="#C9BFFE" stroke="#FABBCD"/>
<rect x="423.267" y="435.415" width="66.9612" height="103.975" fill="#C9BFFE" stroke="#FABBCD"/>
<rect x="493.228" y="435.415" width="66.9612" height="103.975" fill="#C9BFFE" stroke="#FABBCD"/>
<rect x="563.189" y="435.415" width="66.9612" height="103.975" fill="#C9BFFE" stroke="#FABBCD"/>
<rect x="633.151" y="435.415" width="66.9612" height="103.975" fill="#C9BFFE" stroke="#FABBCD"/>
<rect x="3.49994" y="543.837" width="66.9612" height="103.975" fill="#C9BFFE" stroke="#FABBCD"/>
<rect x="73.4611" y="543.837" width="66.9612" height="103.975" fill="#C9BFFE" stroke="#FABBCD"/>
<rect x="143.422" y="543.837" width="66.9612" height="103.975" fill="#C9BFFE" stroke="#FABBCD"/>
<rect x="213.383" y="543.837" width="66.9612" height="103.975" fill="#C9BFFE" stroke="#FABBCD"/>
<rect x="283.345" y="543.837" width="66.9612" height="103.975" fill="#C9BFFE" stroke="#FABBCD"/>
<rect x="353.306" y="543.837" width="66.9612" height="103.975" fill="#C9BFFE" stroke="#FABBCD"/>
<rect x="423.267" y="543.837" width="66.9612" height="103.975" fill="#C9BFFE" stroke="#FABBCD"/>
<rect x="493.228" y="543.837" width="66.9612" height="103.975" fill="#C9BFFE" stroke="#FABBCD"/>
<rect x="563.189" y="543.837" width="66.9612" height="103.975" fill="#C9BFFE" stroke="#FABBCD"/>
<rect x="633.151" y="543.837" width="66.9612" height="103.975" fill="#C9BFFE" stroke="#FABBCD"/>
<rect x="3.49994" y="652.259" width="66.9612" height="103.975" fill="#C9BFFE" stroke="#FABBCD"/>
<rect x="73.4611" y="652.259" width="66.9612" height="103.975" fill="#C9BFFE" stroke="#FABBCD"/>
<rect x="143.422" y="652.259" width="66.9612" height="103.975" fill="#C9BFFE" stroke="#FABBCD"/>
<rect x="213.383" y="652.259" width="66.9612" height="103.975" fill="#C9BFFE" stroke="#FABBCD"/>
<rect x="283.345" y="652.259" width="66.9612" height="103.975" fill="#C9BFFE" stroke="#FABBCD"/>
<rect x="353.306" y="652.259" width="66.9612" height="103.975" fill="#C9BFFE" stroke="#FABBCD"/>
<rect x="423.267" y="652.259" width="66.9612" height="103.975" fill="#C9BFFE" stroke="#FABBCD"/>
<rect x="493.228" y="652.259" width="66.9612" height="103.975" fill="#C9BFFE" stroke="#FABBCD"/>
<rect x="563.189" y="652.259" width="66.9612" height="103.975" fill="#C9BFFE" stroke="#FABBCD"/>
<rect x="633.151" y="652.259" width="66.9612" height="103.975" fill="#C9BFFE" stroke="#FABBCD"/>
<rect x="3.49994" y="760.681" width="66.9612" height="103.975" fill="#C9BFFE" stroke="#FABBCD"/>
<rect x="73.4611" y="760.681" width="66.9612" height="103.975" fill="#C9BFFE" stroke="#FABBCD"/>
<rect x="143.422" y="760.681" width="66.9612" height="103.975" fill="#C9BFFE" stroke="#FABBCD"/>
<rect x="213.383" y="760.681" width="66.9612" height="103.975" fill="#C9BFFE" stroke="#FABBCD"/>
<rect x="283.345" y="760.681" width="66.9612" height="103.975" fill="#C9BFFE" stroke="#FABBCD"/>
<rect x="353.306" y="760.681" width="66.9612" height="103.975" fill="#C9BFFE" stroke="#FABBCD"/>
<rect x="423.267" y="760.681" width="66.9612" height="103.975" fill="#C9BFFE" stroke="#FABBCD"/>
<rect x="493.228" y="760.681" width="66.9612" height="103.975" fill="#C9BFFE" stroke="#FABBCD"/>
<rect x="563.189" y="760.681" width="66.9612" height="103.975" fill="#C9BFFE" stroke="#FABBCD"/>
<rect x="633.151" y="760.681" width="66.9612" height="103.975" fill="#C9BFFE" stroke="#FABBCD"/>
<rect x="3.49994" y="869.103" width="66.9612" height="103.975" fill="#C9BFFE" stroke="#FABBCD"/>
<rect x="73.4611" y="869.103" width="66.9612" height="103.975" fill="#C9BFFE" stroke="#FABBCD"/>
<rect x="143.422" y="869.103" width="66.9612" height="103.975" fill="#C9BFFE" stroke="#FABBCD"/>
<rect x="213.383" y="869.103" width="66.9612" height="103.975" fill="#C9BFFE" stroke="#FABBCD"/>
<rect x="283.345" y="869.103" width="66.9612" height="103.975" fill="#C9BFFE" stroke="#FABBCD"/>
<rect x="353.306" y="869.103" width="66.9612" height="103.975" fill="#C9BFFE" stroke="#FABBCD"/>
<rect x="423.267" y="869.103" width="66.9612" height="103.975" fill="#C9BFFE" stroke="#FABBCD"/>
<rect x="493.228" y="869.103" width="66.9612" height="103.975" fill="#C9BFFE" stroke="#FABBCD"/>
<rect x="563.189" y="869.103" width="66.9612" height="103.975" fill="#C9BFFE" stroke="#FABBCD"/>
<rect x="633.151" y="869.103" width="66.9612" height="103.975" fill="#C9BFFE" stroke="#FABBCD"/>
<rect x="3.49994" y="977.525" width="66.9612" height="103.975" fill="#C9BFFE" stroke="#FABBCD"/>
<rect x="73.4611" y="977.525" width="66.9612" height="103.975" fill="#C9BFFE" stroke="#FABBCD"/>
<rect x="143.422" y="977.525" width="66.9612" height="103.975" fill="#C9BFFE" stroke="#FABBCD"/>
<rect x="213.383" y="977.525" width="66.9612" height="103.975" fill="#C9BFFE" stroke="#FABBCD"/>
<rect x="283.345" y="977.525" width="66.9612" height="103.975" fill="#C9BFFE" stroke="#FABBCD"/>
<rect x="353.306" y="977.525" width="66.9612" height="103.975" fill="#C9BFFE" stroke="#FABBCD"/>
<rect x="423.267" y="977.525" width="66.9612" height="103.975" fill="#C9BFFE" stroke="#FABBCD"/>
<rect x="493.228" y="977.525" width="66.9612" height="103.975" fill="#C9BFFE" stroke="#FABBCD"/>
<rect x="563.189" y="977.525" width="66.9612" height="103.975" fill="#C9BFFE" stroke="#FABBCD"/>
<rect x="633.151" y="977.525" width="66.9612" height="103.975" fill="#C9BFFE" stroke="#FABBCD"/>
<path d="M301.803 183.243C301.803 183.243 298.115 167.469 279.459 151.804C260.803 136.14 207.596 136.974 181.371 153.067C155.146 169.16 157.852 195.228 149.158 200.65C140.441 205.974 98.6203 212.465 77.6638 244.065C56.7073 275.666 71.6845 297.119 70.0482 304.177C68.412 311.235 46.7825 332.929 51.6179 375.136C56.4533 417.343 108.932 413.393 122.42 406.953C132.195 402.203 130.757 386.827 129.205 378.871L128.044 373.905C128.044 373.905 128.597 375.83 129.205 378.871L144.686 445.086C144.686 445.086 166.919 461.557 228.193 445.589C289.466 429.621 315.116 403.598 315.116 403.598L297.018 326.186C297.018 326.186 329.572 308.614 336.962 290.146C344.375 271.776 346.5 231.228 336.659 210.217C326.502 189.176 301.803 183.243 301.803 183.243Z" fill="white"/>
<path d="M128.044 373.905L129.206 378.871C128.597 375.83 128.044 373.905 128.044 373.905Z" fill="white"/>
<path d="M301.803 183.243C301.803 183.243 298.115 167.469 279.459 151.804C260.804 136.14 207.596 136.974 181.371 153.067C177.6 155.386 174.482 157.861 171.724 160.56C181.511 159.812 191.603 161.253 200.915 164.621C218.57 171.174 233.187 184.496 243.523 200.155C251.179 211.818 256.622 225.436 255.657 239.321C254.693 253.205 246.015 267.044 232.685 271.084C228.404 257.605 223.957 243.856 214.76 233.067C205.682 222.352 190.581 215.304 177.245 219.757C176.446 233.911 185.424 246.395 190.828 259.406C196.231 272.418 196.681 290.593 184.326 297.486C173.145 303.694 159.694 296.672 147.606 292.412C129.172 286.041 108.42 286.888 90.6182 294.644C88.7101 303.614 98.124 311.375 107.175 312.75C116.226 314.126 125.482 311.551 134.666 312.177C143.85 312.803 154 318.44 154.393 327.591C154.638 332.155 152.518 337.58 155.743 340.831C158.298 343.417 162.674 342.805 166.157 341.888C187.533 336.685 209.008 331.46 230.407 326.354C236.422 324.845 242.969 323.417 248.829 325.642C253.773 327.464 257.421 331.643 260.558 335.839C268.474 346.415 274.4 358.585 277.794 371.348C278.438 373.662 278.932 376.216 278.002 378.385C277.198 380.216 275.552 381.525 273.936 382.519C264.749 388.467 253.82 390.919 243.32 393.888C220.567 400.234 198.618 409.576 178.205 421.537C176.05 422.862 173.798 424.21 172.335 426.298C170.349 429.227 170.315 433.035 170.82 436.511C171.676 442.37 174.068 447.767 177.342 452.548C189.927 452.789 206.592 451.152 227.998 445.634C289.272 429.666 314.921 403.644 314.921 403.644L296.823 326.231C296.823 326.231 329.378 308.659 336.768 290.192C344.18 271.822 346.305 231.273 336.464 210.262C326.502 189.176 301.803 183.243 301.803 183.243Z" fill="#E1E0E2"/>
<path d="M205.733 310.864L202.261 312.703C201.894 312.892 201.453 313.2 201.086 313.389C202.77 312.687 204.312 311.813 205.733 310.864Z" fill="#212A3A"/>
<path d="M306.93 177.937C304.574 171.812 298.413 159.081 283.612 146.726C266.632 132.518 229.781 131.274 203.685 137.375C193.558 139.743 184.896 143.103 177.99 147.388C159.404 158.819 153.724 174.935 149.946 185.574C148.63 189.168 146.928 194.188 145.656 194.896C144.212 195.747 140.138 197.213 135.75 198.649C118.34 204.568 89.3015 214.335 72.0464 240.244C54.8887 266.129 59.8185 286.337 62.3909 297.341C62.8462 299.288 63.4153 301.723 63.4255 302.645C63.0233 303.56 61.7259 305.917 60.6068 307.719C54.184 318.464 40.9364 340.868 44.9864 375.762C46.5244 389.369 52.596 399.965 62.9381 407.303C80.3848 419.553 105.026 418.209 116.905 415.431C120.119 414.68 122.874 413.728 125.097 412.695C126.759 411.895 128.255 410.827 129.631 409.683L138.236 446.491C138.578 447.952 139.406 449.298 140.653 450.239C141.637 450.933 164.334 467.193 222.856 453.512C225.096 452.988 227.433 452.442 229.65 451.821C291.994 435.602 318.377 409.203 319.559 408.105C321.136 406.504 321.729 404.209 321.228 402.067L304.222 329.328C313.965 323.559 336.214 308.909 342.748 292.491C350.971 271.877 352.641 229.382 342.257 207.367C333.471 188.677 314.845 180.605 306.93 177.937ZM334.463 275.942C334.066 281.273 333.162 284.873 330.959 287.75C329.003 290.364 325.965 292.306 321.302 294.321C311.802 298.493 301.334 299.4 291.004 299.145C282.954 298.973 280.952 293.485 283.013 285.609C284.406 280.148 287.706 275.372 290.57 270.491C300.804 253.208 306.08 231.846 299.969 212.735C300.404 220.747 300.255 228.894 299.453 236.887C299.017 241.61 298.266 246.304 296.862 250.843C291.984 266.875 279.261 278.784 265.923 288.064C262.834 290.224 259.17 293.442 255.584 294.794C251.51 296.26 246.42 296.012 242.09 296.819C235.326 298.195 226.852 301.922 222.139 294.5C219.865 290.924 219.545 286.48 219.173 282.254C217.809 266.757 215.514 250.349 205.877 238.122C202.214 233.432 197.615 229.578 192.988 226.038C206.009 242.199 213.824 262.451 214.986 283.232C215.644 295.71 212.766 306.242 202.358 312.68L205.831 310.842C204.312 311.813 202.77 312.687 201.183 313.366C201.011 313.509 200.816 313.554 200.547 313.72C196.438 315.913 192.96 318.164 189.321 319.733L184.943 322.092C176.067 326.734 166.911 330.621 156.609 331.797C185.414 329.376 211.899 315.276 240.308 310.278C249.672 308.602 259.481 307.952 268.611 310.542C291.723 317.154 293.551 340.347 298.172 360.114C301.382 373.844 304.569 387.476 307.779 401.206C300.062 407.734 274.497 426.65 226.495 439.208C224.279 439.829 222.136 440.329 219.994 440.83C219.605 440.921 219.313 440.99 218.923 441.081C208.438 441.478 194.347 441.383 189.363 438.954C181.009 434.848 191.014 421.418 212.087 412.281C233.16 403.143 303.566 395.926 303.566 395.926C303.566 395.926 231.93 394.805 189.03 411.612C164.87 421.163 153.904 429.169 148.875 434.453C149.443 433.807 147.19 427.247 147.008 426.468C145.574 420.334 144.398 417.939 149.272 413.307C152.448 410.203 155.671 407.293 159.299 404.802C165.231 400.745 171.917 398.154 178.58 395.467C167.867 394.891 156.955 397.853 147.963 403.755C147.424 404.086 146.811 404.537 146.083 404.502C145.671 404.496 145.311 404.272 144.95 404.048C140.317 400.921 138.905 394.884 137.699 389.723C136.606 385.049 134.79 381.674 132.964 377.376C128.603 367.51 131.445 354.625 136.605 345.511C137.776 343.491 139.165 341.523 141.148 340.341C138.249 341.121 135.984 343.294 133.891 345.324C130.05 349.097 126.494 353.215 124.116 357.981C120.86 364.699 121.266 373.025 122.928 380.133C124.519 388.696 124.585 398.642 119.675 400.92C118.941 401.297 117.257 401.999 114.141 402.727C101.579 405.664 82.5243 404.984 70.6204 396.676C63.493 391.667 59.2665 384.131 58.1066 374.338C54.5715 343.842 65.9248 324.756 72.0491 314.492C74.2646 310.791 75.8086 308.171 76.4535 305.658C77.2084 302.298 76.4117 298.89 75.3645 294.41C72.8768 284.209 69.1598 268.749 83.213 247.595C97.9604 225.456 124.416 216.498 140.216 211.161C145.922 209.211 150.018 207.843 152.809 206.163C158.024 202.993 160.105 196.961 162.491 190.036C166.016 180.072 170.402 167.647 185.022 158.581C190.679 155.102 198.218 152.209 206.885 150.183C233.078 144.059 263.863 147.029 275.501 156.838C292.098 170.724 295.668 184.677 295.691 184.775C296.26 187.209 298.124 189.033 300.517 189.603C300.735 189.655 322.314 194.982 330.723 212.94C339.833 232.581 335.896 255.273 334.463 275.942Z" fill="#212A3A"/>
<path d="M175.461 314.039C167.987 311.062 161.937 305.391 154.94 301.378C140.728 293.302 122.549 292.417 107.721 299.272C130.437 306.388 153.056 313.526 175.772 320.642C181.084 322.275 185.219 321.514 189.344 319.831L200.644 313.697C192.686 316.995 183.393 317.217 175.461 314.039Z" fill="#212A3A"/>
<path d="M201.086 313.388C201.453 313.2 201.894 312.891 202.261 312.703L200.622 313.6C200.816 313.554 200.891 313.434 201.086 313.388Z" fill="#212A3A"/>
<path d="M256.519 152.957C245.182 148.829 232.36 149.773 221.16 154.137C219.745 154.674 218.255 155.33 217.314 156.577C216.373 157.824 216.079 159.638 217.079 160.842C227.485 159.231 239.165 159.992 247.235 166.835C250.443 169.576 252.792 173.032 255.14 176.489C257.797 180.386 260.454 184.284 263.111 188.181C264.654 190.388 266.099 192.617 268.308 194.155C270.418 195.715 273.291 196.584 275.755 195.7C278.024 194.862 279.584 192.751 280.395 190.508C281.837 186.576 281.54 182.229 280.509 178.26C277.343 166.471 267.857 157.084 256.519 152.957Z" fill="#212A3A"/>
<path d="M110.92 372.26C109.833 372.001 108.687 372.372 107.639 372.719C101.521 374.663 90.8322 377.265 85.393 372.888C84.8897 372.492 84.4838 372.074 84.0551 371.558C80.5343 367.04 80.7226 359.5 73.5257 359.026C72.7012 359.013 71.7793 359.023 71.1558 358.553C70.5324 358.082 70.2301 357.229 70.048 356.45C69.5079 353.7 71.0289 335.167 63.7551 344.468C61.7014 347.104 60.6417 351.357 60.036 354.477C58.4971 361.512 58.9905 368.894 61.5805 375.579C66.1333 387.147 77.0344 395.998 89.2278 398.076C96.2919 399.3 103.949 398.229 109.43 393.559C114.911 388.888 117.127 380.36 113.362 374.359C112.722 373.379 112.008 372.519 110.92 372.26Z" fill="#212A3A"/>
<path d="M643.449 653.603C638.659 652.167 642.219 628.805 626.222 624.009C610.226 619.212 594.91 618.065 594.91 618.065C594.91 618.065 575.76 594.889 556.211 596.022C536.661 597.155 532.553 599.369 525.647 599.073C518.741 598.777 498.835 584.039 484.563 584.98C470.292 585.921 464.259 594.552 452.756 598.098C441.253 601.643 424.797 598.38 416.448 620.306C408.099 642.232 408.924 773.185 408.924 773.185L382.559 861.118C382.559 861.118 404.308 898.958 455.918 912.762C507.528 926.566 557.448 917.105 557.448 917.105L580.941 838.751C580.941 838.751 661.163 681.569 659.734 668.925C658.305 656.282 648.238 655.039 643.449 653.603Z" fill="white"/>
<path d="M643.449 653.603C638.659 652.167 642.219 628.805 626.222 624.009C610.226 619.212 594.91 618.065 594.91 618.065C594.91 618.065 575.76 594.889 556.211 596.022C537.83 597.088 533.051 599.1 526.882 599.13C526.71 602.837 526.223 606.553 525.533 609.896C524.308 616.419 519.577 617.924 523.409 624.293C527.74 631.437 543.582 631.176 550.603 633.177C562.701 636.7 575.987 641.832 585.394 650.499C593.566 658.064 598.137 673.111 588.866 679.31C584.585 682.098 577.612 682.721 572.9 683.814C565.237 685.692 561.608 691.181 554.664 693.797C551.599 694.966 548.075 694.536 545.124 693.234C542.078 691.903 539.607 689.7 537.288 687.335C529.807 679.558 524.835 678.381 517.126 685.987C512.826 690.231 507.598 699.312 501.075 700.175C492.158 701.364 482.75 686.433 474.993 696.635C467.6 706.32 467.43 722.555 463.313 733.849C459.493 744.5 452.598 754.961 441.996 758.985C437.054 760.844 431.594 761.295 427.054 763.901C422.515 766.507 419.192 772.714 422.172 777.053C445.275 784.607 467.69 794.459 488.965 806.371C508.535 817.354 528.959 833.5 529.987 855.837C530.391 864.936 525.651 875.521 516.609 876.777C512.922 877.237 509.282 876.146 505.738 875.083C483.937 868.755 460.901 866.546 438.248 868.628C432.444 869.185 426.305 870.163 421.765 873.813C415.99 878.449 414.171 886.256 414.623 893.804C425.419 901.321 439.078 908.34 455.889 912.858C507.527 926.566 557.419 917.2 557.419 917.2L580.912 838.846C580.912 838.846 661.134 681.664 659.705 669.021C658.276 656.378 648.238 655.039 643.449 653.603Z" fill="#E1E0E2"/>
<path d="M649.176 648.43C648.601 648.257 648.026 648.085 647.451 647.913C647.135 646.878 646.934 645.461 646.646 644.331C644.969 635.998 642.17 622.004 628.089 617.782C615.445 613.991 603.281 612.432 598.012 611.896C593.625 607.031 581.689 595.309 567.608 591.088C563.585 589.881 559.552 589.403 555.731 589.614C544.898 590.229 538.662 591.178 534.161 591.917C530.54 592.501 528.366 592.789 525.895 592.674C525.895 592.674 525.703 592.617 525.128 592.445C523.021 591.813 519.458 590.118 515.732 588.27C510.08 585.532 503.624 582.343 497.014 580.361C492.129 578.897 487.809 578.332 483.892 578.515C473.758 579.235 467.14 583.201 461.298 586.669C457.85 588.767 454.556 590.703 450.638 591.929C448.569 592.562 445.926 593.022 443.311 593.386C432.67 595.103 417.968 597.48 410.241 618.027C401.892 639.953 402.226 754.787 402.315 772.248L376.237 859.222C375.72 860.947 375.903 862.776 376.803 864.299C377.704 865.822 399.261 902.56 449.836 917.725C451.273 918.155 452.71 918.586 454.175 918.921C506.676 932.888 556.51 923.714 558.617 923.301C561.041 922.88 562.918 921.146 563.636 918.751L586.956 840.972C589.436 836.182 608.271 799.131 626.636 761.208C667.216 677.746 666.516 671.376 666.065 668.005C664.502 653.025 652.911 649.55 649.176 648.43ZM644.987 691.647C638.869 705.786 632.3 719.685 625.76 733.488C619.46 746.841 614.73 760.874 607.309 773.787C604.456 778.778 583.963 807.084 578.788 795.093C576.642 790.065 578.461 784.347 580.232 779.136C588.495 755.409 596.824 731.807 605.182 708.109C589 739.796 572.818 771.484 555.38 802.482C552.909 801.323 550.371 800.04 547.899 798.881C543.538 781.392 549.177 762.934 556.78 746.631C564.382 730.327 574.092 714.656 578.4 697.156C567.79 717.569 556.989 737.924 546.092 758.251C543.248 763.558 540.376 768.96 537.436 774.238C535.128 778.453 532.764 785.991 529.287 789.229C525.811 792.467 517.899 789.26 514.22 787.948C507.793 785.708 507.946 782.413 510.272 775.698C519.951 747.594 527.935 718.877 534.233 689.864C530.116 695.937 527.895 702.997 525.606 709.932C519.747 728.428 513.888 746.925 508.001 765.517C506.612 769.799 505.196 774.176 502.227 777.462C497.601 782.443 481.605 781.823 478.472 775.56C476.681 771.786 479.428 761.23 480.031 757.131C480.94 750.617 482.232 744.219 483.907 737.935C486.999 726.23 491.518 714.64 491.056 702.6C484.498 722.035 477.912 741.566 471.449 761.03C469.276 767.582 466.662 773.167 459.651 773.57C450.935 774.089 442.898 773.036 434.211 775.547C477.668 776.154 520.811 790.342 556.13 815.652C565.929 822.662 574.8 831.376 572.369 844.01C570.733 852.602 567.199 861.252 564.672 869.681C560.508 883.571 556.315 897.555 552.15 911.445C539.708 913.247 498.906 917.717 457.344 906.613C456.003 906.211 454.729 905.933 453.388 905.531C435.925 896.224 425.607 880.498 454.082 874.315C482.586 868.037 543.643 901.168 543.643 901.168C543.643 901.168 535.127 892.664 479.646 870.183C436.273 852.585 402.864 854.678 390.327 856.452L414.681 775.225C414.853 774.65 414.959 773.951 414.939 773.319C414.694 737.228 415.493 639.855 421.966 622.795C425.039 614.634 439.442 599.326 446.801 612.389C448.238 614.908 449.723 617.963 452.529 618.7C454.416 615.194 456.302 611.689 458.16 608.278C463.225 599.044 473.875 592.424 484.325 591.694C486.566 591.531 489.459 591.981 492.812 592.986C505.551 596.806 511.453 605.674 513.217 618.94C515.191 621.411 519.041 621.104 521.713 619.504C524.385 617.904 526.138 615.193 528.187 612.884C535.896 604.234 545.139 603.351 555.972 602.737C558.309 602.602 560.723 602.908 563.405 603.712C570.397 605.809 578.061 610.195 581.922 616.468C585.285 621.965 584.864 631.026 591.416 634.244C596.877 636.925 602.977 632.594 608.839 630.802C621.405 626.845 626.76 633.357 631.886 643.768C634.214 648.537 636.227 653.317 640.106 657.09C644.733 661.505 651.879 662.394 652.828 669.674C652.542 676.896 647.974 684.818 644.987 691.647Z" fill="#212A3A"/>
<path d="M434.219 641.816C436.249 637.831 438.911 633.827 438.901 629.334C438.891 624.842 434.723 619.939 430.5 621.491C424.275 629.021 422.754 639.317 422.008 649.116C420.469 669.221 421.373 689.536 424.508 709.373C425.244 699.258 425.884 689.114 426.591 679.095C427.47 666.414 428.493 653.253 434.219 641.816Z" fill="#212A3A"/>
</svg>
