<svg width="1143" height="1082" viewBox="0 0 1143 1082" fill="none" xmlns="http://www.w3.org/2000/svg">
<rect x="-6.10352e-05" width="1143" height="938" fill="#D9D9D9"/>
<rect x="2.13049" y="1.72656" width="109.813" height="103.975" fill="#C9BFFE" stroke="#FABBCD"/>
<rect x="116.204" y="1.72656" width="109.813" height="103.975" fill="#C9BFFE" stroke="#FABBCD"/>
<rect x="230.278" y="1.72656" width="109.813" height="103.975" fill="#C9BFFE" stroke="#FABBCD"/>
<rect x="344.351" y="1.72656" width="109.813" height="103.975" fill="#C9BFFE" stroke="#FABBCD"/>
<rect x="458.425" y="1.72656" width="109.813" height="103.975" fill="#C9BFFE" stroke="#FABBCD"/>
<rect x="572.499" y="1.72656" width="109.813" height="103.975" fill="#C9BFFE" stroke="#FABBCD"/>
<rect x="686.572" y="1.72656" width="109.813" height="103.975" fill="#C9BFFE" stroke="#FABBCD"/>
<rect x="800.646" y="1.72656" width="109.813" height="103.975" fill="#C9BFFE" stroke="#FABBCD"/>
<rect x="914.72" y="1.72656" width="109.813" height="103.975" fill="#C9BFFE" stroke="#FABBCD"/>
<rect x="1028.79" y="1.72656" width="109.813" height="103.975" fill="#C9BFFE" stroke="#FABBCD"/>
<rect x="2.13049" y="110.149" width="109.813" height="103.975" fill="#C9BFFE" stroke="#FABBCD"/>
<rect x="116.204" y="110.149" width="109.813" height="103.975" fill="#C9BFFE" stroke="#FABBCD"/>
<rect x="230.278" y="110.149" width="109.813" height="103.975" fill="#C9BFFE" stroke="#FABBCD"/>
<rect x="344.351" y="110.149" width="109.813" height="103.975" fill="#C9BFFE" stroke="#FABBCD"/>
<rect x="458.425" y="110.149" width="109.813" height="103.975" fill="#C9BFFE" stroke="#FABBCD"/>
<rect x="572.499" y="110.149" width="109.813" height="103.975" fill="#C9BFFE" stroke="#FABBCD"/>
<rect x="686.572" y="110.149" width="109.813" height="103.975" fill="#C9BFFE" stroke="#FABBCD"/>
<rect x="800.646" y="110.149" width="109.813" height="103.975" fill="#C9BFFE" stroke="#FABBCD"/>
<rect x="914.72" y="110.149" width="109.813" height="103.975" fill="#C9BFFE" stroke="#FABBCD"/>
<rect x="1028.79" y="110.149" width="109.813" height="103.975" fill="#C9BFFE" stroke="#FABBCD"/>
<rect x="2.13049" y="218.571" width="109.813" height="103.975" fill="#C9BFFE" stroke="#FABBCD"/>
<rect x="116.204" y="218.571" width="109.813" height="103.975" fill="#C9BFFE" stroke="#FABBCD"/>
<rect x="230.278" y="218.571" width="109.813" height="103.975" fill="#C9BFFE" stroke="#FABBCD"/>
<rect x="344.351" y="218.571" width="109.813" height="103.975" fill="#C9BFFE" stroke="#FABBCD"/>
<rect x="458.425" y="218.571" width="109.813" height="103.975" fill="#C9BFFE" stroke="#FABBCD"/>
<rect x="572.499" y="218.571" width="109.813" height="103.975" fill="#C9BFFE" stroke="#FABBCD"/>
<rect x="686.572" y="218.571" width="109.813" height="103.975" fill="#C9BFFE" stroke="#FABBCD"/>
<rect x="800.646" y="218.571" width="109.813" height="103.975" fill="#C9BFFE" stroke="#FABBCD"/>
<rect x="914.72" y="218.571" width="109.813" height="103.975" fill="#C9BFFE" stroke="#FABBCD"/>
<rect x="1028.79" y="218.571" width="109.813" height="103.975" fill="#C9BFFE" stroke="#FABBCD"/>
<rect x="2.13049" y="326.993" width="109.813" height="103.975" fill="#C9BFFE" stroke="#FABBCD"/>
<rect x="116.204" y="326.993" width="109.813" height="103.975" fill="#C9BFFE" stroke="#FABBCD"/>
<rect x="230.278" y="326.993" width="109.813" height="103.975" fill="#C9BFFE" stroke="#FABBCD"/>
<rect x="344.351" y="326.993" width="109.813" height="103.975" fill="#C9BFFE" stroke="#FABBCD"/>
<rect x="458.425" y="326.993" width="109.813" height="103.975" fill="#C9BFFE" stroke="#FABBCD"/>
<rect x="572.499" y="326.993" width="109.813" height="103.975" fill="#C9BFFE" stroke="#FABBCD"/>
<rect x="686.572" y="326.993" width="109.813" height="103.975" fill="#C9BFFE" stroke="#FABBCD"/>
<rect x="800.646" y="326.993" width="109.813" height="103.975" fill="#C9BFFE" stroke="#FABBCD"/>
<rect x="914.72" y="326.993" width="109.813" height="103.975" fill="#C9BFFE" stroke="#FABBCD"/>
<rect x="1028.79" y="326.993" width="109.813" height="103.975" fill="#C9BFFE" stroke="#FABBCD"/>
<rect x="2.13049" y="435.415" width="109.813" height="103.975" fill="#C9BFFE" stroke="#FABBCD"/>
<rect x="116.204" y="435.415" width="109.813" height="103.975" fill="#C9BFFE" stroke="#FABBCD"/>
<rect x="230.278" y="435.415" width="109.813" height="103.975" fill="#C9BFFE" stroke="#FABBCD"/>
<rect x="344.351" y="435.415" width="109.813" height="103.975" fill="#C9BFFE" stroke="#FABBCD"/>
<rect x="458.425" y="435.415" width="109.813" height="103.975" fill="#C9BFFE" stroke="#FABBCD"/>
<rect x="572.499" y="435.415" width="109.813" height="103.975" fill="#C9BFFE" stroke="#FABBCD"/>
<rect x="686.572" y="435.415" width="109.813" height="103.975" fill="#C9BFFE" stroke="#FABBCD"/>
<rect x="800.646" y="435.415" width="109.813" height="103.975" fill="#C9BFFE" stroke="#FABBCD"/>
<rect x="914.72" y="435.415" width="109.813" height="103.975" fill="#C9BFFE" stroke="#FABBCD"/>
<rect x="1028.79" y="435.415" width="109.813" height="103.975" fill="#C9BFFE" stroke="#FABBCD"/>
<rect x="2.13049" y="543.837" width="109.813" height="103.975" fill="#C9BFFE" stroke="#FABBCD"/>
<rect x="116.204" y="543.837" width="109.813" height="103.975" fill="#C9BFFE" stroke="#FABBCD"/>
<rect x="230.278" y="543.837" width="109.813" height="103.975" fill="#C9BFFE" stroke="#FABBCD"/>
<rect x="344.351" y="543.837" width="109.813" height="103.975" fill="#C9BFFE" stroke="#FABBCD"/>
<rect x="458.425" y="543.837" width="109.813" height="103.975" fill="#C9BFFE" stroke="#FABBCD"/>
<rect x="572.499" y="543.837" width="109.813" height="103.975" fill="#C9BFFE" stroke="#FABBCD"/>
<rect x="686.572" y="543.837" width="109.813" height="103.975" fill="#C9BFFE" stroke="#FABBCD"/>
<rect x="800.646" y="543.837" width="109.813" height="103.975" fill="#C9BFFE" stroke="#FABBCD"/>
<rect x="914.72" y="543.837" width="109.813" height="103.975" fill="#C9BFFE" stroke="#FABBCD"/>
<rect x="1028.79" y="543.837" width="109.813" height="103.975" fill="#C9BFFE" stroke="#FABBCD"/>
<rect x="2.13049" y="652.259" width="109.813" height="103.975" fill="#C9BFFE" stroke="#FABBCD"/>
<rect x="116.204" y="652.259" width="109.813" height="103.975" fill="#C9BFFE" stroke="#FABBCD"/>
<rect x="230.278" y="652.259" width="109.813" height="103.975" fill="#C9BFFE" stroke="#FABBCD"/>
<rect x="344.351" y="652.259" width="109.813" height="103.975" fill="#C9BFFE" stroke="#FABBCD"/>
<rect x="458.425" y="652.259" width="109.813" height="103.975" fill="#C9BFFE" stroke="#FABBCD"/>
<rect x="572.499" y="652.259" width="109.813" height="103.975" fill="#C9BFFE" stroke="#FABBCD"/>
<rect x="686.572" y="652.259" width="109.813" height="103.975" fill="#C9BFFE" stroke="#FABBCD"/>
<rect x="800.646" y="652.259" width="109.813" height="103.975" fill="#C9BFFE" stroke="#FABBCD"/>
<rect x="914.72" y="652.259" width="109.813" height="103.975" fill="#C9BFFE" stroke="#FABBCD"/>
<rect x="1028.79" y="652.259" width="109.813" height="103.975" fill="#C9BFFE" stroke="#FABBCD"/>
<rect x="2.13049" y="760.681" width="109.813" height="103.975" fill="#C9BFFE" stroke="#FABBCD"/>
<rect x="116.204" y="760.681" width="109.813" height="103.975" fill="#C9BFFE" stroke="#FABBCD"/>
<rect x="230.278" y="760.681" width="109.813" height="103.975" fill="#C9BFFE" stroke="#FABBCD"/>
<rect x="344.351" y="760.681" width="109.813" height="103.975" fill="#C9BFFE" stroke="#FABBCD"/>
<rect x="458.425" y="760.681" width="109.813" height="103.975" fill="#C9BFFE" stroke="#FABBCD"/>
<rect x="572.499" y="760.681" width="109.813" height="103.975" fill="#C9BFFE" stroke="#FABBCD"/>
<rect x="686.572" y="760.681" width="109.813" height="103.975" fill="#C9BFFE" stroke="#FABBCD"/>
<rect x="800.646" y="760.681" width="109.813" height="103.975" fill="#C9BFFE" stroke="#FABBCD"/>
<rect x="914.72" y="760.681" width="109.813" height="103.975" fill="#C9BFFE" stroke="#FABBCD"/>
<rect x="1028.79" y="760.681" width="109.813" height="103.975" fill="#C9BFFE" stroke="#FABBCD"/>
<rect x="2.13049" y="869.103" width="109.813" height="103.975" fill="#C9BFFE" stroke="#FABBCD"/>
<rect x="116.204" y="869.103" width="109.813" height="103.975" fill="#C9BFFE" stroke="#FABBCD"/>
<rect x="230.278" y="869.103" width="109.813" height="103.975" fill="#C9BFFE" stroke="#FABBCD"/>
<rect x="344.351" y="869.103" width="109.813" height="103.975" fill="#C9BFFE" stroke="#FABBCD"/>
<rect x="458.425" y="869.103" width="109.813" height="103.975" fill="#C9BFFE" stroke="#FABBCD"/>
<rect x="572.499" y="869.103" width="109.813" height="103.975" fill="#C9BFFE" stroke="#FABBCD"/>
<rect x="686.572" y="869.103" width="109.813" height="103.975" fill="#C9BFFE" stroke="#FABBCD"/>
<rect x="800.646" y="869.103" width="109.813" height="103.975" fill="#C9BFFE" stroke="#FABBCD"/>
<rect x="914.72" y="869.103" width="109.813" height="103.975" fill="#C9BFFE" stroke="#FABBCD"/>
<rect x="1028.79" y="869.103" width="109.813" height="103.975" fill="#C9BFFE" stroke="#FABBCD"/>
<rect x="2.13049" y="977.525" width="109.813" height="103.975" fill="#C9BFFE" stroke="#FABBCD"/>
<rect x="116.204" y="977.525" width="109.813" height="103.975" fill="#C9BFFE" stroke="#FABBCD"/>
<rect x="230.278" y="977.525" width="109.813" height="103.975" fill="#C9BFFE" stroke="#FABBCD"/>
<rect x="344.351" y="977.525" width="109.813" height="103.975" fill="#C9BFFE" stroke="#FABBCD"/>
<rect x="458.425" y="977.525" width="109.813" height="103.975" fill="#C9BFFE" stroke="#FABBCD"/>
<rect x="572.499" y="977.525" width="109.813" height="103.975" fill="#C9BFFE" stroke="#FABBCD"/>
<rect x="686.572" y="977.525" width="109.813" height="103.975" fill="#C9BFFE" stroke="#FABBCD"/>
<rect x="800.646" y="977.525" width="109.813" height="103.975" fill="#C9BFFE" stroke="#FABBCD"/>
<rect x="914.72" y="977.525" width="109.813" height="103.975" fill="#C9BFFE" stroke="#FABBCD"/>
<rect x="1028.79" y="977.525" width="109.813" height="103.975" fill="#C9BFFE" stroke="#FABBCD"/>
</svg>
