<svg width="2263" height="752" viewBox="0 0 2263 752" fill="none" xmlns="http://www.w3.org/2000/svg">
<rect x="24.9184" y="555.425" width="2247" height="199" transform="rotate(-14.1995 24.9184 555.425)" fill="white" stroke="black" stroke-width="6"/>
<path d="M162.075 625.676C153.753 627.782 145.965 625.357 143.844 616.974C141.692 608.47 147.405 602.694 155.727 600.588C164.961 598.252 170.181 601.003 172.253 602.547C172.968 603.077 173.88 603.105 174.532 602.616L180.16 598.801C181.252 598.008 181.308 596.442 180.318 595.594C173.92 590.232 163.993 589.318 153.545 591.962C138.176 595.851 127.475 605.927 131.087 620.202C134.653 634.295 148.889 638.191 164.258 634.302C175.678 631.412 184.459 624.989 186.729 616.077C187.075 614.891 186.266 613.738 185.065 613.589L177.935 612.743C176.992 612.594 176.113 613.205 175.826 614.117C174.893 617.068 171.855 623.201 162.075 625.676ZM210.031 577.669C194.419 581.62 183.475 591.757 187.088 606.032C190.653 620.125 205.132 623.959 220.744 620.009C236.356 616.059 247.269 605.8 243.703 591.707C240.091 577.432 225.642 573.719 210.031 577.669ZM218.561 611.383C210.604 613.397 203.059 610.911 200.938 602.528C198.786 594.023 204.256 588.309 212.213 586.295C220.171 584.282 227.701 586.707 229.853 595.212C231.974 603.594 226.519 609.37 218.561 611.383ZM269.056 562.734C253.445 566.684 242.501 576.822 246.113 591.097C249.679 605.19 264.158 609.024 279.769 605.074C295.381 601.124 306.294 590.865 302.728 576.772C299.116 562.497 284.668 558.784 269.056 562.734ZM277.587 596.448C269.629 598.462 262.084 595.976 259.963 587.593C257.811 579.088 263.281 573.374 271.239 571.36C279.197 569.347 286.726 571.772 288.878 580.276C290.999 588.659 285.545 594.435 277.587 596.448ZM343.862 544.517L334.933 546.777C334.568 546.869 334.235 547.083 333.977 547.342L315.282 567.972L311.916 554.669C311.639 553.575 310.574 552.94 309.48 553.217L301.887 555.138C300.794 555.415 300.158 556.48 300.435 557.574L309.811 594.629C310.072 595.661 311.138 596.297 312.231 596.02L319.825 594.099C320.918 593.822 321.553 592.756 321.292 591.724L318.187 579.453L324.337 572.338L347.143 586.605C347.6 586.877 348.132 586.936 348.679 586.798L357.669 584.523C359.37 584.093 359.713 581.873 358.252 580.95L331.351 564.294L345.832 547.703C347.089 546.286 345.746 544.041 343.862 544.517ZM395.59 530.717C379.978 534.668 369.035 544.805 372.647 559.08C376.213 573.173 390.692 577.008 406.303 573.057C421.915 569.107 432.828 558.848 429.262 544.755C425.65 530.48 411.202 526.767 395.59 530.717ZM404.121 564.431C396.163 566.445 388.618 563.959 386.497 555.576C384.345 547.072 389.815 541.357 397.773 539.343C405.73 537.33 413.26 539.755 415.412 548.26C417.533 556.643 412.078 562.418 404.121 564.431ZM426.969 525.557L436.345 562.612C436.606 563.645 437.672 564.28 438.705 564.019L446.359 562.082C447.452 561.805 448.087 560.74 447.826 559.707L444.045 544.763L466.764 539.015C467.857 538.738 468.492 537.673 468.216 536.579L466.863 531.234C466.586 530.14 465.521 529.505 464.427 529.782L441.708 535.53L440.479 530.67L469.698 523.277C470.791 523.001 471.426 521.935 471.165 520.902L469.613 514.767C469.336 513.674 468.27 513.038 467.177 513.315L428.36 523.137C427.328 523.398 426.692 524.464 426.969 525.557ZM472.054 514.149L481.43 551.204C481.691 552.237 482.757 552.872 483.789 552.611L491.443 550.674C492.537 550.397 493.172 549.332 492.911 548.299L489.13 533.356L511.848 527.607C512.942 527.331 513.577 526.265 513.3 525.171L511.948 519.826C511.671 518.732 510.606 518.097 509.512 518.374L486.793 524.122L485.564 519.263L514.782 511.87C515.876 511.593 516.511 510.527 516.25 509.495L514.697 503.359C514.421 502.266 513.355 501.631 512.262 501.907L473.445 511.729C472.412 511.99 471.777 513.056 472.054 514.149ZM567.496 532.206C581.043 528.779 591.008 521.926 588.948 513.787C587.519 508.137 582.938 505.871 576.615 505.661C580.027 503.052 581.705 499.719 580.629 495.467C578.769 488.117 568.446 486.915 556.783 489.866C545.12 492.817 536.611 498.784 538.471 506.134C539.547 510.386 542.608 512.52 546.85 513.192C541.388 516.384 538.436 520.557 539.866 526.206C541.925 534.346 553.95 535.634 567.496 532.206ZM565.406 523.945C559.696 525.39 554.557 524.751 553.635 521.106C552.698 517.4 556.929 514.455 562.639 513.01C568.349 511.566 573.473 512.144 574.41 515.849C575.332 519.494 571.116 522.5 565.406 523.945ZM550.808 505.081C549.932 501.618 553.633 498.872 558.735 497.581C563.838 496.29 568.338 496.961 569.214 500.423C569.967 503.4 567.3 505.885 563.201 507.31C562.593 507.464 561.91 507.572 561.302 507.726C560.695 507.879 560.042 508.109 559.434 508.263C555.151 508.959 551.562 508.057 550.808 505.081ZM601.281 513.316L596.422 514.546C593.992 515.16 592.495 517.672 593.125 520.163C593.755 522.653 596.267 524.151 598.697 523.536L603.556 522.306C606.047 521.676 607.544 519.164 606.914 516.674C606.284 514.183 603.772 512.686 601.281 513.316ZM623.255 473.047C610.377 476.306 601.681 485.874 605.293 500.15C608.859 514.243 621.09 518.645 633.968 515.387C646.846 512.128 655.511 502.438 651.945 488.345C648.333 474.07 636.133 469.789 623.255 473.047ZM631.801 506.822C626.03 508.282 620.231 505.289 618.11 496.906C615.958 488.402 619.666 483.133 625.437 481.673C631.208 480.213 636.976 483.084 639.128 491.588C641.249 499.971 637.572 505.362 631.801 506.822Z" fill="black"/>
<path d="M922.584 417.797C928.841 416.214 932.63 417.905 934.427 419.131C935.219 419.707 936.343 419.551 936.933 418.82L940.357 414.981C941.115 414.143 941.035 412.806 940.075 412.079C935.171 408.278 926.933 407.907 919.279 409.843C907.919 412.718 899.856 420.187 902.515 430.696C905.158 441.145 915.896 443.986 927.195 441.127C935.456 439.037 942.889 434.183 944.892 427.794C945.254 426.669 944.566 425.485 943.411 425.261L938.833 424.286C937.875 424.076 936.98 424.625 936.618 425.493C935.667 427.608 933.17 431.278 926.427 432.984C920.291 434.536 915.288 433.152 913.935 427.807C912.798 423.311 916.449 419.35 922.584 417.797ZM991.973 407.996C989.298 397.426 979.563 394.46 964.924 398.165C950.162 401.9 943.071 409.123 945.745 419.693C948.389 430.141 958.078 433.184 972.839 429.449C987.479 425.744 994.616 418.444 991.973 407.996ZM970.718 421.066C964.401 422.664 958.699 421.586 957.469 416.727C956.224 411.806 960.727 408.146 967.045 406.547C973.362 404.949 979.004 406.042 980.249 410.963C981.478 415.822 977.036 419.467 970.718 421.066ZM1018.29 418.076C1026.56 415.986 1031.07 409.286 1033.15 405.268L1037.78 412.307L1042.88 411.015C1043.97 410.739 1044.61 409.673 1044.35 408.641L1034.96 371.525C1034.69 370.492 1033.63 369.857 1032.53 370.134L1024.94 372.055C1023.85 372.332 1023.21 373.397 1023.47 374.43L1026.95 388.158C1023.17 386.269 1017.67 384.948 1010.32 386.808C999.02 389.667 991.746 396.936 994.405 407.445C997.048 417.894 1006.94 420.951 1018.29 418.076ZM1014.96 394.423C1027.84 391.165 1030.11 400.672 1030.11 400.672C1030.11 400.672 1028.46 407.166 1018.8 409.61C1012.67 411.162 1007.66 409.778 1006.31 404.433C1005.17 399.938 1008.82 395.976 1014.96 394.423ZM1060.05 374.225C1048.69 377.099 1040.8 384.523 1043.46 395.032C1046.11 405.48 1056.6 408.383 1067.96 405.509C1076.65 403.311 1084.31 398.077 1085.85 391.157C1085.97 390.61 1085.56 390.003 1084.94 389.838L1083.37 389.523C1082.89 389.388 1082.38 389.708 1082.11 390.165C1078.35 396.999 1060.38 401.868 1055.57 394.359L1082.12 387.642C1084.55 387.027 1085.86 384.303 1084.72 382.073C1082.11 377.111 1075.66 370.275 1060.05 374.225ZM1054.39 390.198C1054.4 386.642 1057.03 383.778 1062.2 382.471C1069.61 380.596 1072.32 382.625 1073.27 384.066C1073.27 384.066 1073.27 384.066 1073.28 384.126C1073.3 384.187 1073.37 384.233 1073.4 384.354C1073.54 384.642 1073.68 384.931 1073.77 385.295L1054.39 390.198ZM1123.75 366.898C1130 365.314 1133.79 367.006 1135.59 368.232C1136.38 368.807 1137.5 368.652 1138.09 367.921L1141.52 364.081C1142.28 363.243 1142.2 361.906 1141.24 361.179C1136.33 357.379 1128.09 357.007 1120.44 358.944C1109.08 361.818 1101.02 369.288 1103.68 379.797C1106.32 390.245 1117.06 393.087 1128.36 390.228C1136.62 388.137 1144.05 383.283 1146.05 376.895C1146.41 375.769 1145.73 374.586 1144.57 374.361L1139.99 373.386C1139.04 373.176 1138.14 373.726 1137.78 374.593C1136.83 376.708 1134.33 380.378 1127.59 382.084C1121.45 383.637 1116.45 382.253 1115.1 376.907C1113.96 372.412 1117.61 368.45 1123.75 366.898ZM1140.82 344.738L1150.21 381.854C1150.47 382.886 1151.54 383.522 1152.63 383.245L1160.22 381.324C1161.32 381.047 1161.95 379.981 1161.69 378.949L1158.94 368.075C1158.94 368.075 1156.42 358.63 1169.24 355.386C1175.43 353.819 1180.53 355.567 1181.67 360.062L1184.76 373.047C1185.04 374.141 1186.1 374.776 1187.2 374.499L1194.79 372.578C1195.88 372.301 1196.52 371.236 1196.26 370.203L1192.97 357.203C1190.31 346.694 1179.3 344.051 1167.94 346.925C1161.5 348.555 1157.8 351.817 1155.62 354.954L1152.3 341.833C1152.04 340.8 1150.97 340.165 1149.88 340.442L1142.29 342.363C1141.19 342.64 1140.56 343.705 1140.82 344.738ZM1211.97 335.784C1200.61 338.658 1192.73 346.082 1195.39 356.591C1198.03 367.039 1208.53 369.942 1219.89 367.068C1228.57 364.87 1236.23 359.636 1237.78 352.716C1237.9 352.169 1237.49 351.562 1236.86 351.397L1235.3 351.082C1234.81 350.947 1234.31 351.267 1234.04 351.724C1230.27 358.558 1212.31 363.427 1207.5 355.918L1234.04 349.201C1236.47 348.586 1237.79 345.862 1236.64 343.631C1234.03 338.669 1227.58 331.834 1211.97 335.784ZM1206.32 351.757C1206.32 348.201 1208.96 345.336 1214.12 344.03C1221.53 342.155 1224.24 344.184 1225.19 345.625C1225.19 345.625 1225.19 345.625 1225.2 345.685C1225.22 345.746 1225.3 345.791 1225.33 345.913C1225.46 346.201 1225.6 346.49 1225.69 346.854L1206.32 351.757ZM1265.94 318.314L1266.7 315.925C1267.04 314.739 1266.22 313.526 1265.02 313.377C1262.55 313.095 1258.39 312.986 1253.29 314.277C1244.6 316.475 1241.2 322.442 1242.69 328.334L1242.84 328.942L1237.98 330.171C1236.95 330.433 1236.33 331.559 1236.59 332.592L1237.78 337.269C1238.04 338.302 1239.1 338.937 1240.14 338.676L1244.99 337.446L1249.85 356.642C1250.13 357.735 1251.19 358.37 1252.23 358.109L1259.88 356.172C1260.91 355.911 1261.55 354.845 1261.27 353.752L1256.43 334.617L1269.61 331.282C1270.71 331.005 1271.34 329.939 1271.06 328.846L1269.88 324.169C1269.62 323.136 1268.54 322.44 1267.51 322.701L1254.51 325.99C1254.26 320.171 1260.98 319.635 1264.05 319.763C1264.94 319.73 1265.7 319.15 1265.94 318.314Z" fill="black"/>
<path d="M1513.89 282.14L1513.21 287.096C1513.03 288.175 1513.81 289.207 1514.87 289.325C1517.94 289.712 1524.48 289.997 1533.41 287.737C1546.23 284.494 1552.09 279.326 1550.39 272.583C1546.68 257.943 1519.61 271.774 1518.72 268.251C1518.15 266.003 1532.29 262.103 1540.5 262.611C1541.35 262.654 1542.17 262.059 1542.41 261.223L1543.72 257.207C1544.12 256.005 1543.28 254.731 1542.04 254.658C1539.07 254.439 1533.51 254.424 1525.49 256.453C1512.68 259.696 1507.81 265.257 1509.26 270.967C1512.76 284.818 1539.94 271.412 1540.85 274.996C1541.57 277.851 1524.32 281.958 1516.18 280.461C1515.09 280.221 1514.06 280.999 1513.89 282.14ZM1571.49 253.605C1577.75 252.022 1581.54 253.713 1583.33 254.939C1584.13 255.514 1585.25 255.359 1585.84 254.628L1589.26 250.788C1590.02 249.95 1589.94 248.613 1588.98 247.886C1584.08 244.086 1575.84 243.714 1568.19 245.651C1556.83 248.525 1548.76 255.995 1551.42 266.504C1554.07 276.952 1564.8 279.794 1576.1 276.935C1584.36 274.845 1591.8 269.991 1593.8 263.602C1594.16 262.476 1593.47 261.293 1592.32 261.068L1587.74 260.093C1586.78 259.883 1585.89 260.433 1585.52 261.3C1584.57 263.416 1582.08 267.085 1575.33 268.791C1569.2 270.344 1564.19 268.96 1562.84 263.614C1561.7 259.119 1565.36 255.157 1571.49 253.605ZM1600.48 238.448L1592.89 240.369C1591.8 240.646 1591.18 241.772 1591.44 242.805L1597.96 268.561C1598.22 269.594 1599.28 270.229 1600.38 269.952L1607.97 268.031C1609.06 267.754 1609.7 266.689 1609.44 265.656L1606.93 255.754C1603.92 243.848 1616.24 243.251 1628.45 240.42C1629.5 240.219 1630.18 239.077 1629.92 238.045L1628.51 232.456C1628.23 231.363 1627.1 230.743 1626.07 231.004C1615.24 233.938 1607.38 237.607 1603.54 242.33L1600.48 238.448ZM1705.25 235.014C1701.54 235.952 1698.94 234.09 1698.2 231.174L1696.2 223.277L1709.39 219.942C1710.42 219.68 1711.05 218.615 1710.79 217.582L1709.61 212.905C1709.33 211.811 1708.27 211.176 1707.23 211.437L1694.05 214.773C1691.33 204.021 1678.29 202.28 1665.47 205.523C1644.45 210.841 1644.51 220.78 1648.75 225.266C1638.65 228.532 1631.92 235.664 1634.4 245.444C1637.04 255.892 1647.6 258.78 1658.9 255.921C1667.7 253.692 1675.53 248.351 1676.91 241.28C1676.98 240.809 1676.68 240.369 1676.21 240.294L1674.09 239.86C1673.76 239.815 1673.35 239.983 1673.18 240.349C1669.71 247.304 1651.41 252.386 1646.57 244.756L1675.42 237.455C1676.46 237.193 1677.08 236.067 1676.75 235.05C1675.44 231.117 1671.05 222.726 1657.88 223.538C1652.81 222.945 1649.64 213.987 1663.74 210.421C1677.4 206.963 1681.83 214.762 1682.57 217.678L1677.77 218.892C1676.68 219.169 1676.04 220.234 1676.32 221.328L1677.49 225.944C1677.76 227.038 1678.83 227.673 1679.92 227.396L1684.72 226.182L1687.35 236.57C1688.84 242.462 1694.69 246.154 1703.37 243.956C1709.39 242.434 1712.72 237.455 1714.12 234.837C1714.55 233.954 1714.27 232.861 1713.48 232.286L1712.47 231.635C1711.62 231.075 1710.48 231.169 1709.84 231.977C1708.95 233.043 1707.44 234.461 1705.25 235.014ZM1664.2 234.478C1664.2 234.478 1664.26 234.462 1664.28 234.523C1664.29 234.584 1664.31 234.644 1664.4 234.751C1664.53 235.039 1664.61 235.343 1664.7 235.707L1645.39 240.595C1645.39 237.039 1647.97 234.19 1653.19 232.868C1660.6 230.992 1663.25 233.037 1664.2 234.478ZM1782.13 191.516C1773.81 193.621 1770.48 198.342 1769.14 201.978C1764.72 198.313 1758.14 197.587 1750.67 199.478C1744.9 200.938 1741.52 203.668 1739.56 206.424L1736.56 204.016L1729.27 205.861C1728.18 206.137 1727.56 207.264 1727.82 208.296L1734.34 234.053C1734.6 235.085 1735.66 235.72 1736.76 235.444L1744.35 233.523C1745.45 233.246 1746.08 232.18 1745.82 231.148L1742.48 217.966C1742.14 215.079 1743.04 210.198 1751.73 208C1757.86 206.448 1761.56 208.55 1762.7 213.045L1765.85 226.015C1766.13 227.108 1767.19 227.743 1768.29 227.467L1775.88 225.545C1776.91 225.284 1777.61 224.203 1777.35 223.17L1774.06 210.171C1774.04 210.11 1773.95 210.004 1773.93 209.943C1773.65 207.041 1774.57 202.221 1783.19 200.038C1789.33 198.486 1793.03 200.588 1794.16 205.083L1797.32 218.053C1797.59 219.146 1798.66 219.781 1799.75 219.505L1807.34 217.583C1808.44 217.307 1809.07 216.241 1808.81 215.208L1805.52 202.209C1802.86 191.7 1793.49 188.641 1782.13 191.516ZM1824.51 180.793C1813.15 183.667 1805.27 191.091 1807.93 201.6C1810.57 212.048 1821.07 214.951 1832.43 212.077C1841.11 209.879 1848.77 204.644 1850.32 197.725C1850.44 197.178 1850.03 196.571 1849.4 196.406L1847.84 196.091C1847.35 195.956 1846.85 196.276 1846.58 196.733C1842.81 203.567 1824.85 208.436 1820.04 200.927L1846.59 194.21C1849.02 193.595 1850.33 190.871 1849.18 188.64C1846.57 183.678 1840.12 176.843 1824.51 180.793ZM1818.86 196.766C1818.86 193.21 1821.5 190.345 1826.66 189.039C1834.07 187.164 1836.79 189.192 1837.73 190.633C1837.73 190.633 1837.73 190.633 1837.75 190.694C1837.76 190.755 1837.84 190.8 1837.87 190.922C1838.01 191.21 1838.14 191.499 1838.24 191.863L1818.86 196.766ZM1855.83 195.621L1855.14 200.577C1854.96 201.657 1855.74 202.688 1856.81 202.806C1859.88 203.193 1866.41 203.478 1875.34 201.219C1888.16 197.975 1894.03 192.807 1892.32 186.064C1888.61 171.424 1861.54 185.255 1860.65 181.732C1860.08 179.484 1874.22 175.584 1882.43 176.092C1883.28 176.135 1884.1 175.54 1884.34 174.704L1885.65 170.688C1886.06 169.486 1885.22 168.212 1883.97 168.14C1881.01 167.92 1875.44 167.906 1867.43 169.934C1854.61 173.178 1849.75 178.739 1851.19 184.449C1854.69 198.299 1881.88 184.893 1882.78 188.477C1883.5 191.332 1866.25 195.439 1858.12 193.942C1857.02 193.702 1855.99 194.48 1855.83 195.621ZM1896.82 185.249L1896.13 190.205C1895.95 191.284 1896.73 192.316 1897.8 192.434C1900.87 192.821 1907.4 193.106 1916.33 190.846C1929.15 187.603 1935.02 182.435 1933.31 175.692C1929.61 161.052 1902.53 174.883 1901.64 171.36C1901.07 169.112 1915.21 165.212 1923.42 165.72C1924.27 165.763 1925.09 165.168 1925.33 164.332L1926.64 160.316C1927.05 159.114 1926.21 157.84 1924.96 157.768C1922 157.548 1916.44 157.533 1908.42 159.562C1895.6 162.806 1890.74 168.366 1892.18 174.077C1895.69 187.927 1922.87 174.521 1923.77 178.105C1924.5 180.96 1907.24 185.067 1899.11 183.57C1898.01 183.33 1896.98 184.108 1896.82 185.249ZM1958.24 180.244C1966.5 178.153 1971.01 171.454 1973.09 167.436L1977.72 174.474L1982.82 173.183C1983.91 172.906 1984.55 171.841 1984.29 170.808L1977.77 145.052C1977.51 144.019 1976.43 143.323 1975.33 143.6L1967.74 145.521C1966.65 145.798 1966.03 146.924 1966.29 147.957L1966.89 150.326C1963.11 148.437 1957.61 147.115 1950.26 148.975C1938.96 151.834 1931.69 159.104 1934.35 169.613C1936.99 180.061 1946.88 183.118 1958.24 180.244ZM1954.9 156.591C1967.78 153.332 1970.06 162.84 1970.06 162.84C1970.06 162.84 1968.4 169.334 1958.74 171.777C1952.61 173.33 1947.6 171.946 1946.25 166.6C1945.11 162.105 1948.77 158.143 1954.9 156.591ZM1991.75 174.607L1991.01 175.506C1990.37 176.313 1990.42 177.529 1991.18 178.241C2002.23 188.179 2038.25 177.772 2032.41 154.689L2026.83 132.638C2026.57 131.606 2025.49 130.91 2024.39 131.186L2019.29 132.477L2015.93 137.852L2015.95 137.912C2012.17 136.024 2006.67 134.702 1999.32 136.562C1988.02 139.421 1980.75 146.69 1983.4 157.2C1986.05 167.648 1995.94 170.705 2007.29 167.83C2013.98 166.14 2018.22 161.447 2020.67 157.595C2024.57 173.024 2002.25 178.285 1994.21 174.114C1993.33 173.691 1992.34 173.876 1991.75 174.607ZM2007.8 159.364C2001.67 160.916 1996.66 159.533 1995.31 154.187C1994.17 149.692 1997.82 145.73 2003.96 144.178C2016.84 140.919 2019.11 150.426 2019.11 150.426C2019.11 150.426 2017.46 156.92 2007.8 159.364ZM2049.05 123.979C2037.69 126.853 2029.81 134.277 2032.46 144.786C2035.11 155.234 2045.6 158.138 2056.96 155.263C2065.65 153.065 2073.31 147.831 2074.85 140.912C2074.97 140.364 2074.56 139.757 2073.94 139.592L2072.37 139.277C2071.89 139.142 2071.38 139.462 2071.11 139.919C2067.35 146.754 2049.38 151.622 2044.57 144.113L2071.12 137.396C2073.55 136.782 2074.86 134.057 2073.72 131.827C2071.11 126.865 2064.66 120.029 2049.05 123.979ZM2043.39 139.953C2043.4 136.396 2046.03 133.532 2051.2 132.225C2058.61 130.35 2061.32 132.379 2062.27 133.82C2062.27 133.82 2062.27 133.82 2062.28 133.881C2062.3 133.941 2062.37 133.987 2062.4 134.108C2062.54 134.397 2062.68 134.685 2062.77 135.049L2043.39 139.953Z" fill="black"/>
<path d="M818.242 397.765C818.013 396.011 820.485 395.385 821.118 397.037L826.429 410.898C833.287 428.795 851.516 439.662 870.521 437.182L885.239 435.262C886.994 435.033 887.619 437.505 885.967 438.138L872.107 443.449C854.209 450.307 843.343 468.536 845.822 487.541L847.742 502.259C847.971 504.014 845.499 504.639 844.866 502.987L839.555 489.127C832.697 471.23 814.469 460.363 795.463 462.842L780.745 464.763C778.99 464.991 778.365 462.52 780.017 461.886L793.877 456.575C811.775 449.717 822.641 431.489 820.162 412.484L818.242 397.765Z" fill="#39DBFF"/>
<path d="M1422.97 244.752C1422.74 242.997 1425.21 242.372 1425.84 244.024L1431.16 257.884C1438.01 275.782 1456.24 286.648 1475.25 284.169L1489.97 282.249C1491.72 282.02 1492.35 284.492 1490.69 285.125L1476.83 290.436C1458.94 297.294 1448.07 315.522 1450.55 334.528L1452.47 349.246C1452.7 351.001 1450.23 351.626 1449.59 349.974L1444.28 336.113C1437.42 318.216 1419.2 307.35 1400.19 309.829L1385.47 311.749C1383.72 311.978 1383.09 309.506 1384.74 308.873L1398.6 303.562C1416.5 296.704 1427.37 278.475 1424.89 259.47L1422.97 244.752Z" fill="#FFF500"/>
<rect x="22.4122" y="72.2746" width="2247" height="199" transform="rotate(5.51862 22.4122 72.2746)" fill="white" stroke="black" stroke-width="6"/>
<path d="M131.17 157.559L103.104 154.847C102.043 154.745 101.023 155.527 100.915 156.65L97.2391 194.696C97.1367 195.756 97.9879 196.72 99.0482 196.822L127.115 199.534C138.528 200.636 148.713 192.304 149.816 180.89L149.876 180.266C150.985 168.79 142.584 158.662 131.17 157.559ZM137.131 179.916C136.588 185.529 131.596 189.642 125.982 189.1L109.828 187.539L111.907 166.022L128.061 167.583C133.675 168.125 137.782 173.18 137.239 178.793L137.131 179.916ZM199.244 190.89C200.292 180.038 192.129 173.961 177.098 172.509C161.942 171.045 152.829 175.452 151.78 186.305C150.744 197.032 158.839 203.165 173.995 204.63C189.026 206.082 198.207 201.618 199.244 190.89ZM174.826 196.023C168.34 195.396 163.336 192.457 163.818 187.468C164.306 182.416 169.78 180.49 176.266 181.116C182.753 181.743 187.694 184.676 187.206 189.727C186.724 194.717 181.313 196.649 174.826 196.023ZM245.523 210.848C246.646 210.956 247.603 210.168 247.706 209.107L248.995 195.76C250.038 184.97 240.565 178.767 228.902 177.64C222.29 177.001 217.708 178.825 214.597 181.043L212.346 176.985L205.173 176.292C204.05 176.183 203.087 177.035 202.984 178.095L200.429 204.54C200.327 205.6 201.116 206.558 202.238 206.666L210.035 207.419C211.157 207.528 212.115 206.739 212.217 205.679L213.296 194.514C213.296 194.514 214.111 184.773 227.271 186.044C233.633 186.659 237.84 190.024 237.394 194.639L235.924 207.906C235.815 209.029 236.604 209.986 237.727 210.095L245.523 210.848ZM275.355 205.61C271.551 205.242 269.665 202.605 269.961 199.549L270.738 191.503L284.272 192.81C285.395 192.919 286.352 192.13 286.461 191.007L286.925 186.205C287.027 185.145 286.244 184.125 285.184 184.022L271.588 182.709L272.522 173.041C272.624 171.981 271.835 171.024 270.775 170.921L262.916 170.162C261.856 170.059 260.899 170.848 260.796 171.908L259.862 181.576L254.872 181.094C253.812 180.991 252.849 181.842 252.746 182.903L252.282 187.705C252.18 188.766 252.969 189.723 254.029 189.825L259.018 190.308L257.982 201.035C257.397 207.085 261.661 212.47 270.58 213.332C276.755 213.929 281.569 210.365 283.713 208.369C284.472 207.686 284.58 206.564 283.966 205.749L283.24 204.798C282.688 203.989 281.578 203.756 280.713 204.239C279.443 204.997 277.538 205.82 275.355 205.61ZM317.065 192.642L331.987 219.328L342.902 220.382L362.719 197.053L360.49 220.13C360.387 221.19 361.176 222.148 362.299 222.256L370.157 223.016C371.218 223.118 372.175 222.329 372.278 221.269L375.954 183.224C376.062 182.101 375.273 181.143 374.213 181.041L363.423 179.998L338.506 209.193L319.639 175.768L308.849 174.726C307.789 174.623 306.832 175.412 306.723 176.535L303.047 214.58C302.945 215.641 303.734 216.598 304.794 216.701L312.652 217.46C313.713 217.562 314.733 216.779 314.835 215.719L317.065 192.642ZM388.216 194.04L380.357 193.281C379.297 193.178 378.34 193.967 378.237 195.027L375.682 221.472C375.58 222.532 376.368 223.49 377.429 223.592L385.287 224.352C386.348 224.454 387.305 223.665 387.408 222.605L389.963 196.16C390.065 195.1 389.276 194.142 388.216 194.04ZM388.854 181.574L382.118 180.923C379.935 180.712 377.951 182.346 377.734 184.592C377.524 186.775 379.158 188.758 381.34 188.969L388.076 189.62C390.259 189.831 392.243 188.197 392.454 186.014C392.671 183.768 391.037 181.785 388.854 181.574ZM393.542 215.706L391.225 220.141C390.692 221.097 391.077 222.33 392.038 222.801C394.799 224.2 400.855 226.674 410.023 227.56C423.183 228.831 430.45 225.945 431.119 219.022C432.571 203.991 402.419 207.877 402.769 204.259C402.992 201.952 417.616 203.05 425.172 206.298C425.958 206.626 426.93 206.342 427.439 205.636L430.028 202.297C430.816 201.303 430.456 199.821 429.307 199.332C426.591 198.125 421.36 196.235 413.127 195.44C399.967 194.168 393.513 197.762 392.947 203.625C391.573 217.845 421.682 214.396 421.327 218.076C421.044 221.007 403.417 219.053 396.264 214.899C395.314 214.304 394.081 214.688 393.542 215.706ZM435.629 219.773L433.312 224.207C432.779 225.163 433.164 226.396 434.126 226.867C436.886 228.267 442.942 230.74 452.111 231.626C465.271 232.898 472.537 230.012 473.206 223.089C474.658 208.057 444.507 211.943 444.856 208.326C445.079 206.018 459.704 207.116 467.259 210.364C468.046 210.692 469.017 210.408 469.526 209.702L472.115 206.364C472.904 205.37 472.543 203.887 471.394 203.398C468.678 202.192 463.447 200.301 455.214 199.506C442.054 198.234 435.601 201.829 435.034 207.691C433.66 221.912 463.77 218.463 463.414 222.142C463.131 225.074 445.504 223.119 438.351 218.966C437.402 218.37 436.169 218.755 435.629 219.773ZM524.13 194.833C508.101 193.284 494.379 199.135 492.963 213.792C491.565 228.262 503.901 236.756 519.93 238.305C535.959 239.853 549.694 233.878 551.092 219.408C552.508 204.751 540.159 196.382 524.13 194.833ZM520.786 229.448C512.615 228.659 506.352 223.773 507.183 215.166C508.027 206.434 515.104 202.9 523.275 203.689C531.445 204.479 537.715 209.302 536.871 218.034C536.04 226.641 528.956 230.238 520.786 229.448ZM599.017 243.113L601.578 216.606C601.68 215.546 600.898 214.526 599.775 214.417L591.979 213.664C590.856 213.555 589.892 214.407 589.79 215.467L588.717 226.569C588.717 226.569 587.902 236.31 574.68 235.033C568.38 234.424 564.167 231.121 564.619 226.444L566.027 213.171C566.192 212.117 565.347 211.091 564.286 210.988L556.49 210.235C555.368 210.127 554.404 210.978 554.302 212.038L553.018 225.323C551.97 236.175 561.443 242.378 573.106 243.505C579.717 244.144 584.3 242.321 587.41 240.103L588.97 244.157L596.828 244.916C597.951 245.024 598.914 244.173 599.017 243.113ZM626.673 239.553C622.868 239.185 620.983 236.548 621.278 233.492L622.055 225.446L635.589 226.754C636.712 226.862 637.67 226.073 637.778 224.951L638.242 220.148C638.345 219.088 637.562 218.068 636.501 217.966L622.905 216.652L623.839 206.985C623.941 205.924 623.152 204.967 622.092 204.864L614.234 204.105C613.173 204.003 612.216 204.791 612.113 205.852L611.179 215.519L606.19 215.037C605.129 214.934 604.166 215.786 604.063 216.846L603.599 221.648C603.497 222.709 604.286 223.666 605.346 223.769L610.336 224.251L609.299 234.978C608.715 241.028 612.979 246.413 621.898 247.275C628.072 247.872 632.886 244.308 635.03 242.312C635.789 241.63 635.897 240.507 635.284 239.692L634.557 238.741C634.006 237.932 632.895 237.699 632.03 238.182C630.761 238.94 628.856 239.764 626.673 239.553Z" fill="black"/>
<path d="M912.447 252.244C918.871 252.864 921.868 255.735 923.145 257.495C923.697 258.304 924.807 258.537 925.61 258.048L930.128 255.589C931.124 255.056 931.5 253.77 930.842 252.762C927.508 247.53 919.878 244.4 912.019 243.641C900.356 242.514 890.245 246.825 889.203 257.615C888.166 268.343 897.315 274.641 908.916 275.761C917.398 276.581 926.033 274.519 930.074 269.181C930.794 268.244 930.547 266.898 929.535 266.296L925.555 263.834C924.724 263.313 923.696 263.529 923.062 264.223C921.453 265.893 917.864 268.505 910.941 267.836C904.641 267.228 900.398 264.237 900.928 258.748C901.374 254.133 906.148 251.635 912.447 252.244ZM981.074 266.429C982.123 255.576 973.959 249.5 958.928 248.047C943.772 246.583 934.659 250.99 933.611 261.843C932.574 272.57 940.669 278.703 955.825 280.168C970.856 281.62 980.038 277.156 981.074 266.429ZM956.656 271.561C950.17 270.934 945.166 267.995 945.648 263.006C946.136 257.954 951.61 256.028 958.097 256.654C964.583 257.281 969.525 260.214 969.037 265.266C968.555 270.255 963.143 272.187 956.656 271.561ZM1002.45 284.799C1010.93 285.618 1017.44 280.833 1020.76 277.754L1022.74 285.94L1027.98 286.446C1029.1 286.555 1030.06 285.766 1030.16 284.706L1033.84 246.598C1033.94 245.538 1033.16 244.58 1032.03 244.471L1024.24 243.718C1023.11 243.61 1022.16 244.399 1022.05 245.459L1020.69 259.554C1017.78 256.503 1013.04 253.401 1005.49 252.672C993.892 251.551 984.592 255.941 983.549 266.731C982.513 277.458 990.789 283.672 1002.45 284.799ZM1007.29 261.407C1020.52 262.685 1019.45 272.403 1019.45 272.403C1019.45 272.403 1015.7 277.958 1005.79 277C999.487 276.391 995.243 273.4 995.774 267.912C996.22 263.296 1000.99 260.799 1007.29 261.407ZM1056.55 257.605C1044.89 256.478 1034.96 260.807 1033.92 271.597C1032.88 282.325 1041.78 288.599 1053.45 289.726C1062.37 290.587 1071.34 288.244 1075.13 282.252C1075.43 281.777 1075.25 281.067 1074.71 280.701L1073.35 279.876C1072.93 279.585 1072.35 279.717 1071.94 280.055C1066.09 285.219 1047.54 283.741 1045.55 275.05L1072.8 277.683C1075.3 277.924 1077.45 275.803 1077.13 273.317C1076.34 267.764 1072.58 259.154 1056.55 257.605ZM1045.84 270.734C1047.04 267.388 1050.49 265.581 1055.79 266.093C1063.4 266.829 1065.27 269.653 1065.67 271.329C1065.67 271.329 1065.67 271.329 1065.67 271.391C1065.66 271.454 1065.72 271.522 1065.71 271.647C1065.74 271.965 1065.77 272.282 1065.73 272.657L1045.84 270.734ZM1118.99 272.199C1125.41 272.82 1128.41 275.69 1129.68 277.45C1130.24 278.259 1131.35 278.492 1132.15 278.003L1136.67 275.544C1137.66 275.011 1138.04 273.725 1137.38 272.717C1134.05 267.485 1126.42 264.355 1118.56 263.596C1106.9 262.469 1096.78 266.78 1095.74 277.57C1094.71 288.298 1103.85 294.596 1115.46 295.717C1123.94 296.536 1132.57 294.475 1136.61 289.136C1137.33 288.199 1137.09 286.853 1136.07 286.251L1132.09 283.789C1131.26 283.269 1130.23 283.484 1129.6 284.178C1127.99 285.848 1124.4 288.46 1117.48 287.791C1111.18 287.183 1106.94 284.192 1107.47 278.703C1107.91 274.088 1112.69 271.59 1118.99 272.199ZM1142.54 257.1L1138.85 295.207C1138.75 296.268 1139.54 297.225 1140.66 297.334L1148.46 298.087C1149.58 298.195 1150.54 297.407 1150.64 296.346L1151.72 285.182C1151.72 285.182 1152.54 275.44 1165.7 276.712C1172.06 277.327 1176.27 280.692 1175.82 285.307L1174.35 298.574C1174.24 299.697 1175.03 300.654 1176.15 300.763L1183.95 301.516C1185.07 301.624 1186.03 300.835 1186.13 299.775L1187.42 286.428C1188.46 275.638 1178.99 269.435 1167.33 268.308C1160.72 267.669 1156.13 269.493 1153.02 271.71L1154.32 258.238C1154.43 257.178 1153.64 256.221 1152.51 256.112L1144.72 255.359C1143.6 255.25 1142.64 256.039 1142.54 257.1ZM1212.54 272.676C1200.87 271.549 1190.95 275.878 1189.91 286.668C1188.87 297.396 1197.77 303.669 1209.43 304.796C1218.35 305.658 1227.33 303.315 1231.12 297.323C1231.41 296.848 1231.23 296.138 1230.7 295.772L1229.33 294.947C1228.92 294.655 1228.34 294.788 1227.93 295.126C1222.08 300.29 1203.53 298.812 1201.53 290.121L1228.79 292.754C1231.28 292.995 1233.44 290.874 1233.11 288.388C1232.33 282.835 1228.56 274.225 1212.54 272.676ZM1201.82 285.805C1203.03 282.459 1206.48 280.652 1211.78 281.164C1219.39 281.899 1221.25 284.724 1221.66 286.4C1221.66 286.4 1221.66 286.4 1221.65 286.462C1221.65 286.524 1221.7 286.593 1221.69 286.718C1221.72 287.035 1221.76 287.353 1221.72 287.727L1201.82 285.805ZM1269.24 274.44L1270.75 272.446C1271.48 271.446 1271.11 270.026 1270.03 269.481C1267.81 268.385 1263.93 266.876 1258.69 266.37C1249.77 265.508 1244.55 269.978 1243.97 276.028L1243.91 276.651L1238.92 276.169C1237.86 276.067 1236.89 276.918 1236.79 277.978L1236.33 282.781C1236.22 283.841 1237.01 284.798 1238.07 284.901L1243.06 285.383L1241.16 305.092C1241.05 306.215 1241.84 307.172 1242.9 307.274L1250.76 308.034C1251.82 308.136 1252.78 307.347 1252.88 306.225L1254.78 286.578L1268.32 287.886C1269.44 287.994 1270.4 287.206 1270.51 286.083L1270.97 281.28C1271.07 280.22 1270.29 279.2 1269.23 279.098L1255.88 277.808C1257.62 272.247 1264.12 274.008 1266.96 275.165C1267.82 275.436 1268.73 275.146 1269.24 274.44Z" fill="black"/>
<path d="M1524.62 303.773L1516.82 303.02C1515.7 302.911 1514.74 303.762 1514.64 304.823L1512.08 331.267C1511.98 332.328 1512.77 333.285 1513.89 333.394L1521.69 334.147C1522.81 334.255 1523.77 333.467 1523.87 332.406L1524.85 322.24C1526.03 310.016 1537.83 313.611 1550.28 315.066C1551.34 315.231 1552.36 314.385 1552.47 313.325L1553.02 307.587C1553.13 306.464 1552.28 305.501 1551.22 305.398C1540.04 304.507 1531.4 305.309 1526.18 308.456L1524.62 303.773ZM1576.81 307.871C1565.14 306.744 1555.22 311.073 1554.18 321.863C1553.14 332.591 1562.04 338.864 1573.7 339.991C1582.62 340.853 1591.6 338.51 1595.39 332.518C1595.69 332.043 1595.5 331.333 1594.97 330.967L1593.6 330.142C1593.19 329.85 1592.61 329.983 1592.2 330.321C1586.35 335.485 1567.8 334.007 1565.81 325.316L1593.06 327.949C1595.56 328.19 1597.71 326.069 1597.39 323.583C1596.6 318.03 1592.84 309.42 1576.81 307.871ZM1566.1 321C1567.3 317.654 1570.75 315.847 1576.05 316.359C1583.66 317.094 1585.53 319.919 1585.93 321.595C1585.93 321.595 1585.93 321.595 1585.93 321.657C1585.92 321.719 1585.98 321.788 1585.96 321.913C1586 322.23 1586.03 322.548 1585.99 322.922L1566.1 321ZM1601.78 345.474L1600.78 346.07C1599.91 346.615 1599.55 347.776 1600.02 348.703C1607.07 361.786 1644.49 364.142 1646.78 340.441L1648.96 317.801C1649.07 316.741 1648.28 315.721 1647.16 315.612L1641.92 315.106L1636.95 319.032L1636.94 319.095C1634.03 316.043 1629.29 312.941 1621.74 312.212C1610.14 311.091 1600.84 315.481 1599.8 326.271C1598.76 336.998 1607.04 343.212 1618.7 344.339C1625.56 345.002 1631.14 342.015 1634.75 339.216C1633.21 355.058 1610.42 352.478 1604.27 345.84C1603.58 345.144 1602.59 344.985 1601.78 345.474ZM1622.04 336.54C1615.74 335.931 1611.49 332.94 1612.02 327.452C1612.47 322.837 1617.24 320.339 1623.54 320.948C1636.76 322.225 1635.7 331.943 1635.7 331.943C1635.7 331.943 1631.95 337.498 1622.04 336.54ZM1662.29 317.137L1654.43 316.378C1653.37 316.275 1652.41 317.064 1652.31 318.124L1649.75 344.569C1649.65 345.629 1650.44 346.587 1651.5 346.689L1659.36 347.449C1660.42 347.551 1661.38 346.762 1661.48 345.702L1664.03 319.257C1664.14 318.197 1663.35 317.239 1662.29 317.137ZM1662.92 304.671L1656.19 304.02C1654.01 303.809 1652.02 305.443 1651.81 307.689C1651.59 309.872 1653.23 311.855 1655.41 312.066L1662.15 312.717C1664.33 312.928 1666.31 311.294 1666.52 309.111C1666.74 306.865 1665.11 304.882 1662.92 304.671ZM1726.87 345.787C1723.13 345.426 1721.24 342.789 1721.54 339.732L1722.32 331.624L1735.85 332.994C1736.97 333.103 1737.93 332.252 1738.04 331.191L1738.5 326.389C1738.6 325.329 1737.82 324.309 1736.7 324.2L1723.16 322.893L1724.1 313.225C1724.2 312.165 1723.41 311.207 1722.29 311.099L1714.49 310.346C1713.37 310.237 1712.41 311.026 1712.31 312.086L1711.38 321.754L1710 321.621C1704.96 321.071 1695.74 320.054 1687.07 319.216C1673.91 317.945 1667.42 321.913 1666.85 327.839C1665.48 341.996 1695.76 337.431 1695.4 341.111C1695.12 344.042 1677.43 342.081 1670.35 337.871C1669.39 337.338 1668.16 337.723 1667.62 338.741L1665.3 343.175C1664.77 344.131 1665.15 345.364 1666.12 345.835C1668.88 347.235 1674.93 349.709 1684.04 350.588C1697.26 351.866 1704.53 348.98 1705.2 342.057C1706.65 327.026 1676.38 332.096 1676.73 328.479C1676.96 326.109 1693.39 328.766 1703.61 329.817L1710.53 330.485L1709.5 341.213C1708.91 347.263 1713.17 352.648 1722.09 353.51C1728.27 354.106 1733.14 350.549 1735.29 348.552C1736.05 347.87 1736.09 346.742 1735.54 345.933L1734.82 344.981C1734.2 344.167 1733.09 343.933 1732.23 344.416C1731.02 345.181 1729.11 346.004 1726.87 345.787ZM1762.33 325.796C1750.67 324.669 1740.75 328.998 1739.7 339.788C1738.67 350.516 1747.57 356.789 1759.23 357.916C1768.15 358.778 1777.13 356.435 1780.92 350.443C1781.21 349.968 1781.03 349.258 1780.5 348.892L1779.13 348.067C1778.72 347.775 1778.14 347.908 1777.73 348.246C1771.88 353.41 1753.32 351.932 1751.33 343.241L1778.59 345.874C1781.08 346.115 1783.24 343.994 1782.91 341.508C1782.13 335.955 1778.36 327.344 1762.33 325.796ZM1751.62 338.925C1752.83 335.579 1756.28 333.772 1761.58 334.284C1769.19 335.019 1771.05 337.844 1771.46 339.52C1771.46 339.52 1771.46 339.52 1771.45 339.582C1771.45 339.644 1771.5 339.713 1771.49 339.837C1771.52 340.155 1771.55 340.473 1771.52 340.847L1751.62 338.925ZM1796.57 330.048L1788.78 329.295C1787.66 329.187 1786.69 330.038 1786.59 331.098L1784.03 357.543C1783.93 358.603 1784.72 359.561 1785.84 359.669L1793.64 360.422C1794.76 360.531 1795.72 359.742 1795.82 358.682L1796.8 348.516C1797.99 336.291 1809.79 339.886 1822.24 341.341C1823.29 341.506 1824.32 340.661 1824.42 339.601L1824.98 333.862C1825.08 332.74 1824.23 331.776 1823.17 331.674C1811.99 330.782 1803.35 331.584 1798.14 334.732L1796.57 330.048ZM1886.14 369.359C1887.26 369.468 1888.22 368.679 1888.32 367.619L1889.61 354.272C1890.65 343.482 1881.18 337.278 1869.52 336.152C1862.91 335.513 1858.32 337.336 1855.21 339.554L1852.96 335.496L1845.79 334.803C1844.67 334.695 1843.7 335.546 1843.6 336.606L1841.04 363.051C1840.94 364.111 1841.73 365.069 1842.85 365.177L1850.65 365.931C1851.77 366.039 1852.73 365.25 1852.83 364.19L1853.91 353.026C1853.91 353.026 1854.73 343.284 1867.89 344.555C1874.25 345.17 1878.46 348.535 1878.01 353.151L1876.54 366.417C1876.43 367.54 1877.22 368.498 1878.34 368.606L1886.14 369.359ZM1939.57 359.035C1940.61 348.183 1932.45 342.106 1917.42 340.654C1902.26 339.19 1893.15 343.597 1892.1 354.449C1891.07 365.177 1899.16 371.31 1914.32 372.774C1929.35 374.227 1938.53 369.763 1939.57 359.035ZM1915.15 364.167C1908.66 363.541 1903.66 360.602 1904.14 355.612C1904.63 350.56 1910.1 348.634 1916.59 349.261C1923.07 349.888 1928.02 352.82 1927.53 357.872C1927.05 362.862 1921.63 364.794 1915.15 364.167ZM2002.94 351.12L1991.39 368.953L1983.54 349.245C1983.23 348.523 1982.59 348.02 1981.9 347.954L1974.92 347.279C1974.23 347.213 1973.5 347.583 1973.06 348.233L1961.52 366.066L1953.66 346.359C1953.36 345.637 1952.71 345.134 1951.96 345.062L1943.61 344.254C1942.11 344.109 1941.02 345.641 1941.58 347.017L1952.68 374.781C1952.99 375.503 1953.63 376.006 1954.32 376.073L1966.67 377.266C1967.42 377.338 1968.14 376.968 1968.52 376.312L1976.88 363.459L1982.56 377.668C1982.86 378.39 1983.51 378.893 1984.26 378.965L1996.54 380.152C1997.29 380.225 1998.02 379.854 1998.46 379.204L2014.67 354.079C2015.49 352.836 2014.71 351.124 2013.21 350.979L2004.79 350.166C2004.11 350.099 2003.38 350.47 2002.94 351.12ZM2022.12 368.711L2024.43 368.934C2025.43 369.03 2026.31 368.298 2026.54 367.312L2031.31 343.285C2031.55 342.112 2030.77 341.03 2029.59 340.915L2022.17 340.198C2021.04 340.09 2020.01 340.997 2020.02 342.194L2020.35 366.778C2020.38 367.788 2021.12 368.615 2022.12 368.711ZM2025.23 373.607L2020.25 373.125C2017.69 372.878 2015.43 374.738 2015.18 377.295C2014.94 379.852 2016.8 382.109 2019.35 382.356L2024.34 382.838C2026.9 383.085 2029.16 381.226 2029.4 378.669C2029.65 376.112 2027.79 373.854 2025.23 373.607Z" fill="black"/>
<path d="M820.982 198.182C821.359 196.453 823.896 196.698 823.935 198.467L824.258 213.307C824.676 232.469 838.169 248.848 856.896 252.926L871.4 256.085C873.129 256.461 872.883 258.999 871.114 259.038L856.275 259.361C837.113 259.779 820.734 273.272 816.655 291.999L813.497 306.502C813.12 308.231 810.583 307.986 810.544 306.217L810.221 291.377C809.803 272.216 796.31 255.836 777.582 251.758L763.079 248.6C761.35 248.223 761.596 245.685 763.365 245.647L778.204 245.323C797.366 244.906 813.745 231.413 817.824 212.685L820.982 198.182Z" fill="#E35B5B"/>
<path d="M1441.88 258.171C1442.25 256.442 1444.79 256.687 1444.83 258.456L1445.15 273.296C1445.57 292.458 1459.06 308.837 1477.79 312.915L1492.29 316.074C1494.02 316.45 1493.78 318.988 1492.01 319.027L1477.17 319.35C1458.01 319.767 1441.63 333.261 1437.55 351.988L1434.39 366.491C1434.01 368.22 1431.48 367.975 1431.44 366.206L1431.11 351.366C1430.7 332.205 1417.2 315.825 1398.48 311.747L1383.97 308.589C1382.24 308.212 1382.49 305.674 1384.26 305.636L1399.1 305.312C1418.26 304.895 1434.64 291.401 1438.72 272.674L1441.88 258.171Z" fill="#82D965"/>
</svg>
