<svg width="350" height="407" viewBox="0 0 350 407" fill="none" xmlns="http://www.w3.org/2000/svg">
<path d="M312.449 103.603C307.659 102.167 311.219 78.8049 295.222 74.0087C279.226 69.2124 263.91 68.0654 263.91 68.0654C263.91 68.0654 244.76 44.889 225.211 46.0222C205.661 47.1555 201.553 49.3687 194.647 49.0729C187.741 48.777 167.835 34.0391 153.563 34.98C139.292 35.9209 133.259 44.5518 121.756 48.0976C110.253 51.6433 93.7971 48.3797 85.4482 70.3056C77.0994 92.2316 77.9242 223.185 77.9242 223.185L51.5593 311.118C51.5593 311.118 73.3078 348.958 124.918 362.762C176.527 376.566 226.448 367.105 226.448 367.105L249.941 288.751C249.941 288.751 330.163 131.569 328.734 118.925C327.305 106.282 317.238 105.039 312.449 103.603Z" fill="white"/>
<path d="M312.449 103.603C307.659 102.167 311.219 78.8048 295.222 74.0085C279.226 69.2123 263.91 68.0653 263.91 68.0653C263.91 68.0653 244.76 44.8888 225.21 46.0221C206.83 47.0881 202.051 49.1003 195.882 49.13C195.71 52.8368 195.223 56.5532 194.533 59.8961C193.308 66.4191 188.577 67.9237 192.409 74.2926C196.74 81.4373 212.582 81.1763 219.603 83.177C231.701 86.7 244.987 91.8319 254.394 100.499C262.566 108.064 267.137 123.111 257.866 129.31C253.585 132.098 246.612 132.721 241.9 133.814C234.237 135.692 230.608 141.181 223.664 143.797C220.599 144.966 217.075 144.536 214.124 143.234C211.078 141.903 208.607 139.7 206.288 137.335C198.807 129.558 193.835 128.381 186.126 135.987C181.826 140.231 176.598 149.312 170.075 150.175C161.158 151.364 151.75 136.433 143.993 146.635C136.6 156.32 136.43 172.555 132.313 183.849C128.493 194.5 121.598 204.961 110.996 208.985C106.054 210.844 100.594 211.295 96.0544 213.901C91.5147 216.507 88.192 222.714 91.1715 227.053C114.275 234.607 136.69 244.459 157.965 256.371C177.535 267.354 197.959 283.5 198.987 305.837C199.391 314.936 194.651 325.521 185.609 326.777C181.922 327.237 178.282 326.146 174.738 325.083C152.937 318.755 129.901 316.546 107.248 318.628C101.444 319.185 95.3046 320.163 90.7651 323.813C84.9901 328.449 83.1715 336.256 83.6228 343.804C94.4187 351.321 108.078 358.34 124.889 362.858C176.527 376.566 226.419 367.2 226.419 367.2L249.912 288.846C249.912 288.846 330.134 131.664 328.705 119.021C327.276 106.378 317.238 105.039 312.449 103.603Z" fill="#E1E0E2"/>
<path d="M318.176 98.4296C317.601 98.2573 317.026 98.085 316.451 97.9126C316.135 96.8782 315.934 95.4607 315.646 94.3305C313.969 85.9977 311.17 72.0043 297.089 67.7824C284.445 63.9914 272.281 62.432 267.012 61.8965C262.625 57.0314 250.689 45.3094 236.608 41.0876C232.585 39.8814 228.552 39.4031 224.731 39.6144C213.898 40.2291 207.662 41.1783 203.161 41.9165C199.54 42.5014 197.366 42.789 194.895 42.6745C194.895 42.6745 194.703 42.617 194.128 42.4447C192.021 41.8129 188.458 40.1181 184.732 38.2701C179.08 35.5315 172.624 32.343 166.014 30.3613C161.129 28.8966 156.809 28.3321 152.892 28.5147C142.758 29.2346 136.14 33.2011 130.298 36.6693C126.85 38.7675 123.556 40.7028 119.638 41.9294C117.569 42.5619 114.926 43.0221 112.311 43.3865C101.67 45.1026 86.9677 47.4803 79.2412 68.0269C70.8923 89.9528 71.2261 204.787 71.3151 222.248L45.2373 309.222C44.7204 310.947 44.9026 312.776 45.8032 314.299C46.7038 315.822 68.2606 352.56 118.836 367.725C120.273 368.155 121.71 368.586 123.175 368.921C175.676 382.888 225.51 373.714 227.617 373.301C230.041 372.88 231.918 371.146 232.636 368.751L255.956 290.972C258.436 286.182 277.271 249.131 295.636 211.208C336.216 127.746 335.516 121.376 335.065 118.005C333.502 103.025 321.911 99.5497 318.176 98.4296ZM313.987 141.647C307.869 155.786 301.3 169.685 294.76 183.488C288.46 196.841 283.73 210.874 276.309 223.787C273.456 228.778 252.963 257.084 247.788 245.093C245.642 240.065 247.461 234.347 249.232 229.136C257.495 205.409 265.824 181.807 274.182 158.109C258 189.796 241.818 221.484 224.38 252.482C221.909 251.323 219.371 250.04 216.899 248.881C212.538 231.392 218.177 212.934 225.78 196.631C233.382 180.327 243.092 164.656 247.4 147.156C236.79 167.569 225.989 187.924 215.092 208.251C212.248 213.558 209.376 218.96 206.436 224.238C204.128 228.453 201.764 235.991 198.287 239.229C194.811 242.467 186.899 239.26 183.22 237.948C176.793 235.708 176.946 232.413 179.272 225.698C188.951 197.594 196.935 168.877 203.233 139.864C199.116 145.937 196.895 152.997 194.606 159.932C188.747 178.428 182.888 196.925 177.001 215.517C175.612 219.799 174.196 224.176 171.227 227.462C166.601 232.443 150.605 231.823 147.472 225.56C145.681 221.786 148.428 211.23 149.031 207.131C149.94 200.617 151.232 194.219 152.907 187.935C155.999 176.23 160.518 164.64 160.056 152.6C153.498 172.035 146.912 191.566 140.449 211.03C138.276 217.582 135.662 223.167 128.651 223.57C119.935 224.089 111.898 223.036 103.211 225.547C146.668 226.154 189.811 240.342 225.13 265.652C234.929 272.662 243.8 281.376 241.369 294.01C239.733 302.602 236.199 311.252 233.672 319.681C229.508 333.571 225.315 347.555 221.15 361.445C208.708 363.247 167.906 367.717 126.344 356.613C125.003 356.211 123.729 355.933 122.388 355.531C104.925 346.224 94.607 330.498 123.082 324.315C151.586 318.037 212.643 351.168 212.643 351.168C212.643 351.168 204.127 342.664 148.646 320.183C105.273 302.585 71.8642 304.678 59.3265 306.452L83.6811 225.225C83.8534 224.65 83.9586 223.951 83.9394 223.319C83.6943 187.228 84.4934 89.8549 90.9657 72.795C94.0391 64.6339 108.442 49.3256 115.801 62.3892C117.238 64.908 118.723 67.9633 121.529 68.7004C123.416 65.1944 125.302 61.6885 127.16 58.2784C132.225 49.0442 142.875 42.4239 153.325 41.6943C155.566 41.5312 158.459 41.9809 161.812 42.9861C174.551 46.8058 180.453 55.6744 182.217 68.94C184.191 71.4109 188.041 71.1038 190.713 69.5038C193.385 67.9039 195.138 65.1929 197.187 62.8843C204.896 54.2339 214.139 53.3512 224.972 52.7366C227.309 52.6021 229.723 52.9082 232.405 53.7124C239.397 55.8089 247.061 60.1946 250.922 66.4678C254.285 71.9652 253.864 81.0263 260.416 84.2436C265.877 86.9246 271.977 82.5943 277.839 80.8023C290.405 76.8445 295.76 83.3569 300.886 93.7677C303.214 98.5373 305.227 103.317 309.106 107.09C313.733 111.505 320.879 112.394 321.828 119.674C321.542 126.896 316.974 134.818 313.987 141.647Z" fill="#212A3A"/>
<path d="M103.219 91.8156C105.249 87.8307 107.911 83.8266 107.901 79.3344C107.891 74.8421 103.723 69.9387 99.4997 71.4911C93.275 79.0206 91.7536 89.3174 91.0081 99.1161C89.4691 119.221 90.3726 139.536 93.5077 159.373C94.2437 149.258 94.8839 139.114 95.5911 129.095C96.4704 116.414 97.4932 103.253 103.219 91.8156Z" fill="#212A3A"/>
</svg>
